<svg width="398" height="259" viewBox="0 0 398 259" fill="none" xmlns="http://www.w3.org/2000/svg">
<path d="M248.616 250.802C248.616 251.269 248.499 251.708 248.266 252.118C248.042 252.529 247.706 252.874 247.258 253.154C246.819 253.434 246.297 253.602 245.69 253.658V254.792H244.78V253.658C243.903 253.574 243.193 253.299 242.652 252.832C242.111 252.366 241.84 251.75 241.84 250.984H243.548C243.576 251.348 243.693 251.652 243.898 251.894C244.103 252.128 244.397 252.277 244.78 252.342V249.262C244.155 249.104 243.646 248.945 243.254 248.786C242.862 248.618 242.526 248.357 242.246 248.002C241.975 247.648 241.84 247.162 241.84 246.546C241.84 245.772 242.111 245.132 242.652 244.628C243.193 244.115 243.903 243.816 244.78 243.732V242.598H245.69V243.732C246.511 243.807 247.169 244.068 247.664 244.516C248.168 244.955 248.453 245.562 248.518 246.336H246.81C246.782 246.047 246.67 245.79 246.474 245.566C246.278 245.333 246.017 245.174 245.69 245.09V248.114C246.315 248.264 246.824 248.422 247.216 248.59C247.608 248.749 247.939 249.006 248.21 249.36C248.481 249.706 248.616 250.186 248.616 250.802ZM243.464 246.462C243.464 246.845 243.576 247.144 243.8 247.358C244.033 247.573 244.36 247.746 244.78 247.876V245.048C244.379 245.095 244.057 245.24 243.814 245.482C243.581 245.725 243.464 246.052 243.464 246.462ZM245.69 252.342C246.101 252.277 246.423 252.114 246.656 251.852C246.889 251.582 247.006 251.26 247.006 250.886C247.006 250.513 246.889 250.224 246.656 250.018C246.432 249.804 246.11 249.631 245.69 249.5V252.342ZM250.749 251.446V250.242L255.453 243.494H257.385V250.06H258.687V251.446H257.385V253.574H255.817V251.446H250.749ZM255.887 245.118L252.583 250.06H255.887V245.118ZM261.97 251.656L260.276 255.52H259.24L260.234 251.656H261.97ZM269.734 244.74H265.044V247.526C265.24 247.265 265.53 247.046 265.912 246.868C266.304 246.691 266.72 246.602 267.158 246.602C267.942 246.602 268.577 246.77 269.062 247.106C269.557 247.442 269.907 247.867 270.112 248.38C270.327 248.894 270.434 249.435 270.434 250.004C270.434 250.695 270.299 251.311 270.028 251.852C269.767 252.384 269.37 252.804 268.838 253.112C268.316 253.42 267.672 253.574 266.906 253.574C265.889 253.574 265.072 253.322 264.456 252.818C263.84 252.314 263.472 251.647 263.35 250.816H264.904C265.007 251.255 265.236 251.605 265.59 251.866C265.945 252.118 266.388 252.244 266.92 252.244C267.583 252.244 268.078 252.044 268.404 251.642C268.74 251.241 268.908 250.709 268.908 250.046C268.908 249.374 268.74 248.861 268.404 248.506C268.068 248.142 267.574 247.96 266.92 247.96C266.463 247.96 266.076 248.077 265.758 248.31C265.45 248.534 265.226 248.842 265.086 249.234H263.574V243.34H269.734V244.74ZM272.096 248.338C272.096 246.724 272.367 245.464 272.908 244.558C273.459 243.644 274.401 243.186 275.736 243.186C277.071 243.186 278.009 243.644 278.55 244.558C279.101 245.464 279.376 246.724 279.376 248.338C279.376 249.972 279.101 251.25 278.55 252.174C278.009 253.089 277.071 253.546 275.736 253.546C274.401 253.546 273.459 253.089 272.908 252.174C272.367 251.25 272.096 249.972 272.096 248.338ZM277.808 248.338C277.808 247.582 277.757 246.943 277.654 246.42C277.561 245.898 277.365 245.473 277.066 245.146C276.767 244.81 276.324 244.642 275.736 244.642C275.148 244.642 274.705 244.81 274.406 245.146C274.107 245.473 273.907 245.898 273.804 246.42C273.711 246.943 273.664 247.582 273.664 248.338C273.664 249.122 273.711 249.78 273.804 250.312C273.897 250.844 274.093 251.274 274.392 251.6C274.7 251.927 275.148 252.09 275.736 252.09C276.324 252.09 276.767 251.927 277.066 251.6C277.374 251.274 277.575 250.844 277.668 250.312C277.761 249.78 277.808 249.122 277.808 248.338ZM280.869 251.446V250.242L285.573 243.494H287.505V250.06H288.807V251.446H287.505V253.574H285.937V251.446H280.869ZM286.007 245.118L282.703 250.06H286.007V245.118Z" fill="#222B45"/>
<path d="M241 254.974H289.283V255.674H241V254.974Z" fill="#222B45"/>
<path d="M249.096 218.848V220.032H246.056V230H244.6V220.032H241.544V218.848H249.096ZM255.24 221.072C255.902 221.072 256.499 221.216 257.032 221.504C257.566 221.781 257.982 222.203 258.28 222.768C258.59 223.333 258.744 224.021 258.744 224.832V230H257.304V225.04C257.304 224.165 257.086 223.499 256.648 223.04C256.211 222.571 255.614 222.336 254.856 222.336C254.088 222.336 253.475 222.576 253.016 223.056C252.568 223.536 252.344 224.235 252.344 225.152V230H250.888V218.16H252.344V222.48C252.632 222.032 253.027 221.685 253.528 221.44C254.04 221.195 254.611 221.072 255.24 221.072ZM261.875 219.808C261.597 219.808 261.363 219.712 261.171 219.52C260.979 219.328 260.883 219.093 260.883 218.816C260.883 218.539 260.979 218.304 261.171 218.112C261.363 217.92 261.597 217.824 261.875 217.824C262.141 217.824 262.365 217.92 262.547 218.112C262.739 218.304 262.835 218.539 262.835 218.816C262.835 219.093 262.739 219.328 262.547 219.52C262.365 219.712 262.141 219.808 261.875 219.808ZM262.579 221.232V230H261.123V221.232H262.579ZM268.164 230.144C267.492 230.144 266.889 230.032 266.356 229.808C265.823 229.573 265.401 229.253 265.092 228.848C264.783 228.432 264.612 227.957 264.58 227.424H266.084C266.127 227.861 266.329 228.219 266.692 228.496C267.065 228.773 267.551 228.912 268.148 228.912C268.703 228.912 269.14 228.789 269.46 228.544C269.78 228.299 269.94 227.989 269.94 227.616C269.94 227.232 269.769 226.949 269.428 226.768C269.087 226.576 268.559 226.389 267.844 226.208C267.193 226.037 266.66 225.867 266.244 225.696C265.839 225.515 265.487 225.253 265.188 224.912C264.9 224.56 264.756 224.101 264.756 223.536C264.756 223.088 264.889 222.677 265.156 222.304C265.423 221.931 265.801 221.637 266.292 221.424C266.783 221.2 267.343 221.088 267.972 221.088C268.943 221.088 269.727 221.333 270.324 221.824C270.921 222.315 271.241 222.987 271.284 223.84H269.828C269.796 223.381 269.609 223.013 269.268 222.736C268.937 222.459 268.489 222.32 267.924 222.32C267.401 222.32 266.985 222.432 266.676 222.656C266.367 222.88 266.212 223.173 266.212 223.536C266.212 223.824 266.303 224.064 266.484 224.256C266.676 224.437 266.911 224.587 267.188 224.704C267.476 224.811 267.871 224.933 268.372 225.072C269.001 225.243 269.513 225.413 269.908 225.584C270.303 225.744 270.639 225.989 270.916 226.32C271.204 226.651 271.353 227.083 271.364 227.616C271.364 228.096 271.231 228.528 270.964 228.912C270.697 229.296 270.319 229.6 269.828 229.824C269.348 230.037 268.793 230.144 268.164 230.144ZM288.997 218.928V230H287.541V221.744L283.861 230H282.837L279.141 221.728V230H277.685V218.928H279.253L283.349 228.08L287.445 218.928H288.997ZM295.29 230.144C294.469 230.144 293.722 229.957 293.05 229.584C292.389 229.211 291.866 228.683 291.482 228C291.109 227.307 290.922 226.507 290.922 225.6C290.922 224.704 291.114 223.915 291.498 223.232C291.893 222.539 292.426 222.011 293.098 221.648C293.77 221.275 294.522 221.088 295.354 221.088C296.186 221.088 296.938 221.275 297.61 221.648C298.282 222.011 298.81 222.533 299.194 223.216C299.589 223.899 299.786 224.693 299.786 225.6C299.786 226.507 299.584 227.307 299.178 228C298.784 228.683 298.245 229.211 297.562 229.584C296.88 229.957 296.122 230.144 295.29 230.144ZM295.29 228.864C295.813 228.864 296.304 228.741 296.762 228.496C297.221 228.251 297.589 227.883 297.866 227.392C298.154 226.901 298.298 226.304 298.298 225.6C298.298 224.896 298.16 224.299 297.882 223.808C297.605 223.317 297.242 222.955 296.794 222.72C296.346 222.475 295.861 222.352 295.338 222.352C294.805 222.352 294.314 222.475 293.866 222.72C293.429 222.955 293.077 223.317 292.81 223.808C292.544 224.299 292.41 224.896 292.41 225.6C292.41 226.315 292.538 226.917 292.794 227.408C293.061 227.899 293.413 228.267 293.85 228.512C294.288 228.747 294.768 228.864 295.29 228.864ZM305.973 221.072C307.039 221.072 307.903 221.397 308.565 222.048C309.226 222.688 309.557 223.616 309.557 224.832V230H308.117V225.04C308.117 224.165 307.898 223.499 307.461 223.04C307.023 222.571 306.426 222.336 305.669 222.336C304.901 222.336 304.287 222.576 303.829 223.056C303.381 223.536 303.157 224.235 303.157 225.152V230H301.701V221.232H303.157V222.48C303.445 222.032 303.834 221.685 304.325 221.44C304.826 221.195 305.375 221.072 305.973 221.072ZM313.711 222.432V227.6C313.711 228.027 313.802 228.331 313.983 228.512C314.164 228.683 314.479 228.768 314.927 228.768H315.999V230H314.687C313.876 230 313.268 229.813 312.863 229.44C312.458 229.067 312.255 228.453 312.255 227.6V222.432H311.119V221.232H312.255V219.024H313.711V221.232H315.999V222.432H313.711ZM322.115 221.072C322.777 221.072 323.374 221.216 323.907 221.504C324.441 221.781 324.857 222.203 325.155 222.768C325.465 223.333 325.619 224.021 325.619 224.832V230H324.179V225.04C324.179 224.165 323.961 223.499 323.523 223.04C323.086 222.571 322.489 222.336 321.731 222.336C320.963 222.336 320.35 222.576 319.891 223.056C319.443 223.536 319.219 224.235 319.219 225.152V230H317.763V218.16H319.219V222.48C319.507 222.032 319.902 221.685 320.403 221.44C320.915 221.195 321.486 221.072 322.115 221.072Z" fill="#96A5B8"/>
<path d="M241 231.6H326.771V232.4H241V231.6Z" fill="#96A5B8"/>
<path d="M214 223.5H233" stroke="#05C283" stroke-width="3" stroke-linecap="round"/>
<circle cx="223.5" cy="223.5" r="4.5" fill="#07E098"/>
<path d="M105.616 251.228C105.616 251.695 105.499 252.133 105.266 252.544C105.042 252.955 104.706 253.3 104.258 253.58C103.819 253.86 103.297 254.028 102.69 254.084V255.218H101.78V254.084C100.903 254 100.193 253.725 99.652 253.258C99.1107 252.791 98.84 252.175 98.84 251.41H100.548C100.576 251.774 100.693 252.077 100.898 252.32C101.103 252.553 101.397 252.703 101.78 252.768V249.688C101.155 249.529 100.646 249.371 100.254 249.212C99.862 249.044 99.526 248.783 99.246 248.428C98.9753 248.073 98.84 247.588 98.84 246.972C98.84 246.197 99.1107 245.558 99.652 245.054C100.193 244.541 100.903 244.242 101.78 244.158V243.024H102.69V244.158C103.511 244.233 104.169 244.494 104.664 244.942C105.168 245.381 105.453 245.987 105.518 246.762H103.81C103.782 246.473 103.67 246.216 103.474 245.992C103.278 245.759 103.017 245.6 102.69 245.516V248.54C103.315 248.689 103.824 248.848 104.216 249.016C104.608 249.175 104.939 249.431 105.21 249.786C105.481 250.131 105.616 250.612 105.616 251.228ZM100.464 246.888C100.464 247.271 100.576 247.569 100.8 247.784C101.033 247.999 101.36 248.171 101.78 248.302V245.474C101.379 245.521 101.057 245.665 100.814 245.908C100.581 246.151 100.464 246.477 100.464 246.888ZM102.69 252.768C103.101 252.703 103.423 252.539 103.656 252.278C103.889 252.007 104.006 251.685 104.006 251.312C104.006 250.939 103.889 250.649 103.656 250.444C103.432 250.229 103.11 250.057 102.69 249.926V252.768ZM107.917 246.314C107.973 245.446 108.305 244.769 108.911 244.284C109.527 243.799 110.311 243.556 111.263 243.556C111.917 243.556 112.481 243.673 112.957 243.906C113.433 244.139 113.793 244.457 114.035 244.858C114.278 245.259 114.399 245.712 114.399 246.216C114.399 246.795 114.245 247.289 113.937 247.7C113.629 248.111 113.261 248.386 112.831 248.526V248.582C113.382 248.75 113.811 249.058 114.119 249.506C114.427 249.945 114.581 250.509 114.581 251.2C114.581 251.751 114.455 252.241 114.203 252.67C113.951 253.099 113.578 253.44 113.083 253.692C112.589 253.935 111.996 254.056 111.305 254.056C110.297 254.056 109.467 253.799 108.813 253.286C108.169 252.763 107.824 252.017 107.777 251.046H109.317C109.355 251.541 109.546 251.947 109.891 252.264C110.237 252.572 110.703 252.726 111.291 252.726C111.861 252.726 112.299 252.572 112.607 252.264C112.915 251.947 113.069 251.541 113.069 251.046C113.069 250.393 112.859 249.931 112.439 249.66C112.029 249.38 111.394 249.24 110.535 249.24H110.171V247.924H110.549C111.305 247.915 111.879 247.789 112.271 247.546C112.673 247.303 112.873 246.921 112.873 246.398C112.873 245.95 112.729 245.595 112.439 245.334C112.15 245.063 111.739 244.928 111.207 244.928C110.685 244.928 110.279 245.063 109.989 245.334C109.7 245.595 109.527 245.922 109.471 246.314H107.917ZM118.218 252.082L116.524 255.946H115.488L116.482 252.082H118.218ZM119.403 248.764C119.403 247.149 119.673 245.889 120.215 244.984C120.765 244.069 121.708 243.612 123.043 243.612C124.377 243.612 125.315 244.069 125.857 244.984C126.407 245.889 126.683 247.149 126.683 248.764C126.683 250.397 126.407 251.676 125.857 252.6C125.315 253.515 124.377 253.972 123.043 253.972C121.708 253.972 120.765 253.515 120.215 252.6C119.673 251.676 119.403 250.397 119.403 248.764ZM125.115 248.764C125.115 248.008 125.063 247.369 124.961 246.846C124.867 246.323 124.671 245.899 124.373 245.572C124.074 245.236 123.631 245.068 123.043 245.068C122.455 245.068 122.011 245.236 121.713 245.572C121.414 245.899 121.213 246.323 121.111 246.846C121.017 247.369 120.971 248.008 120.971 248.764C120.971 249.548 121.017 250.206 121.111 250.738C121.204 251.27 121.4 251.699 121.699 252.026C122.007 252.353 122.455 252.516 123.043 252.516C123.631 252.516 124.074 252.353 124.373 252.026C124.681 251.699 124.881 251.27 124.975 250.738C125.068 250.206 125.115 249.548 125.115 248.764ZM128.371 248.764C128.371 247.149 128.642 245.889 129.183 244.984C129.734 244.069 130.677 243.612 132.011 243.612C133.346 243.612 134.284 244.069 134.825 244.984C135.376 245.889 135.651 247.149 135.651 248.764C135.651 250.397 135.376 251.676 134.825 252.6C134.284 253.515 133.346 253.972 132.011 253.972C130.677 253.972 129.734 253.515 129.183 252.6C128.642 251.676 128.371 250.397 128.371 248.764ZM134.083 248.764C134.083 248.008 134.032 247.369 133.929 246.846C133.836 246.323 133.64 245.899 133.341 245.572C133.043 245.236 132.599 245.068 132.011 245.068C131.423 245.068 130.98 245.236 130.681 245.572C130.383 245.899 130.182 246.323 130.079 246.846C129.986 247.369 129.939 248.008 129.939 248.764C129.939 249.548 129.986 250.206 130.079 250.738C130.173 251.27 130.369 251.699 130.667 252.026C130.975 252.353 131.423 252.516 132.011 252.516C132.599 252.516 133.043 252.353 133.341 252.026C133.649 251.699 133.85 251.27 133.943 250.738C134.037 250.206 134.083 249.548 134.083 248.764ZM137.144 251.872V250.668L141.848 243.92H143.78V250.486H145.082V251.872H143.78V254H142.212V251.872H137.144ZM142.282 245.544L138.978 250.486H142.282V245.544Z" fill="#222B45"/>
<path d="M98 255.4H145.558V256.1H98V255.4Z" fill="#222B45"/>
<path d="M100.688 228.816H104.592V230H99.232V218.848H100.688V228.816ZM105.594 225.584C105.594 224.688 105.776 223.904 106.138 223.232C106.501 222.549 106.997 222.021 107.626 221.648C108.266 221.275 108.976 221.088 109.754 221.088C110.522 221.088 111.189 221.253 111.754 221.584C112.32 221.915 112.741 222.331 113.018 222.832V221.232H114.49V230H113.018V228.368C112.73 228.88 112.298 229.307 111.722 229.648C111.157 229.979 110.496 230.144 109.738 230.144C108.96 230.144 108.256 229.952 107.626 229.568C106.997 229.184 106.501 228.645 106.138 227.952C105.776 227.259 105.594 226.469 105.594 225.584ZM113.018 225.6C113.018 224.939 112.885 224.363 112.618 223.872C112.352 223.381 111.989 223.008 111.53 222.752C111.082 222.485 110.586 222.352 110.042 222.352C109.498 222.352 109.002 222.48 108.554 222.736C108.106 222.992 107.749 223.365 107.482 223.856C107.216 224.347 107.082 224.923 107.082 225.584C107.082 226.256 107.216 226.843 107.482 227.344C107.749 227.835 108.106 228.213 108.554 228.48C109.002 228.736 109.498 228.864 110.042 228.864C110.586 228.864 111.082 228.736 111.53 228.48C111.989 228.213 112.352 227.835 112.618 227.344C112.885 226.843 113.018 226.261 113.018 225.6ZM120.055 230.144C119.383 230.144 118.78 230.032 118.247 229.808C117.713 229.573 117.292 229.253 116.983 228.848C116.673 228.432 116.503 227.957 116.471 227.424H117.975C118.017 227.861 118.22 228.219 118.583 228.496C118.956 228.773 119.441 228.912 120.039 228.912C120.593 228.912 121.031 228.789 121.351 228.544C121.671 228.299 121.831 227.989 121.831 227.616C121.831 227.232 121.66 226.949 121.319 226.768C120.977 226.576 120.449 226.389 119.735 226.208C119.084 226.037 118.551 225.867 118.135 225.696C117.729 225.515 117.377 225.253 117.079 224.912C116.791 224.56 116.647 224.101 116.647 223.536C116.647 223.088 116.78 222.677 117.047 222.304C117.313 221.931 117.692 221.637 118.183 221.424C118.673 221.2 119.233 221.088 119.863 221.088C120.833 221.088 121.617 221.333 122.215 221.824C122.812 222.315 123.132 222.987 123.175 223.84H121.719C121.687 223.381 121.5 223.013 121.159 222.736C120.828 222.459 120.38 222.32 119.815 222.32C119.292 222.32 118.876 222.432 118.567 222.656C118.257 222.88 118.103 223.173 118.103 223.536C118.103 223.824 118.193 224.064 118.375 224.256C118.567 224.437 118.801 224.587 119.079 224.704C119.367 224.811 119.761 224.933 120.263 225.072C120.892 225.243 121.404 225.413 121.799 225.584C122.193 225.744 122.529 225.989 122.807 226.32C123.095 226.651 123.244 227.083 123.255 227.616C123.255 228.096 123.121 228.528 122.855 228.912C122.588 229.296 122.209 229.6 121.719 229.824C121.239 230.037 120.684 230.144 120.055 230.144ZM127.086 222.432V227.6C127.086 228.027 127.177 228.331 127.358 228.512C127.539 228.683 127.854 228.768 128.302 228.768H129.374V230H128.062C127.251 230 126.643 229.813 126.238 229.44C125.833 229.067 125.63 228.453 125.63 227.6V222.432H124.494V221.232H125.63V219.024H127.086V221.232H129.374V222.432H127.086ZM146.716 218.928V230H145.26V221.744L141.58 230H140.556L136.86 221.728V230H135.404V218.928H136.972L141.068 228.08L145.164 218.928H146.716ZM153.009 230.144C152.188 230.144 151.441 229.957 150.769 229.584C150.108 229.211 149.585 228.683 149.201 228C148.828 227.307 148.641 226.507 148.641 225.6C148.641 224.704 148.833 223.915 149.217 223.232C149.612 222.539 150.145 222.011 150.817 221.648C151.489 221.275 152.241 221.088 153.073 221.088C153.905 221.088 154.657 221.275 155.329 221.648C156.001 222.011 156.529 222.533 156.913 223.216C157.308 223.899 157.505 224.693 157.505 225.6C157.505 226.507 157.302 227.307 156.897 228C156.502 228.683 155.964 229.211 155.281 229.584C154.598 229.957 153.841 230.144 153.009 230.144ZM153.009 228.864C153.532 228.864 154.022 228.741 154.481 228.496C154.94 228.251 155.308 227.883 155.585 227.392C155.873 226.901 156.017 226.304 156.017 225.6C156.017 224.896 155.878 224.299 155.601 223.808C155.324 223.317 154.961 222.955 154.513 222.72C154.065 222.475 153.58 222.352 153.057 222.352C152.524 222.352 152.033 222.475 151.585 222.72C151.148 222.955 150.796 223.317 150.529 223.808C150.262 224.299 150.129 224.896 150.129 225.6C150.129 226.315 150.257 226.917 150.513 227.408C150.78 227.899 151.132 228.267 151.569 228.512C152.006 228.747 152.486 228.864 153.009 228.864ZM163.692 221.072C164.758 221.072 165.622 221.397 166.284 222.048C166.945 222.688 167.276 223.616 167.276 224.832V230H165.836V225.04C165.836 224.165 165.617 223.499 165.18 223.04C164.742 222.571 164.145 222.336 163.388 222.336C162.62 222.336 162.006 222.576 161.548 223.056C161.1 223.536 160.876 224.235 160.876 225.152V230H159.42V221.232H160.876V222.48C161.164 222.032 161.553 221.685 162.044 221.44C162.545 221.195 163.094 221.072 163.692 221.072ZM171.43 222.432V227.6C171.43 228.027 171.521 228.331 171.702 228.512C171.883 228.683 172.198 228.768 172.646 228.768H173.718V230H172.406C171.595 230 170.987 229.813 170.582 229.44C170.177 229.067 169.974 228.453 169.974 227.6V222.432H168.838V221.232H169.974V219.024H171.43V221.232H173.718V222.432H171.43ZM179.834 221.072C180.495 221.072 181.093 221.216 181.626 221.504C182.159 221.781 182.575 222.203 182.874 222.768C183.183 223.333 183.338 224.021 183.338 224.832V230H181.898V225.04C181.898 224.165 181.679 223.499 181.242 223.04C180.805 222.571 180.207 222.336 179.45 222.336C178.682 222.336 178.069 222.576 177.61 223.056C177.162 223.536 176.938 224.235 176.938 225.152V230H175.482V218.16H176.938V222.48C177.226 222.032 177.621 221.685 178.122 221.44C178.634 221.195 179.205 221.072 179.834 221.072Z" fill="#96A5B8"/>
<path d="M98 231.6H184.49V232.4H98V231.6Z" fill="#96A5B8"/>
<path d="M71 224.5H90" stroke="#0080DA" stroke-width="3" stroke-linecap="round"/>
<circle cx="80.5" cy="224.5" r="4.5" fill="#0095FF"/>
<rect x="199" y="214.574" width="1" height="24" fill="#BDC9D3"/>
<path d="M3.19256 22.613C28.2038 29.9033 48.446 48.7051 76.6204 48.7051C104.795 48.7051 113.862 34.6037 131.957 34.6037C150.052 34.6037 162.212 62.8065 187.294 62.8065C212.376 62.8065 230.214 29.9033 255.401 29.9033C280.588 29.9033 315.405 81.6084 339.471 81.6084C363.537 81.6084 394.808 1.80627 394.808 1.80627" stroke="#05C283" stroke-width="2" stroke-linecap="round"/>
<path fill-rule="evenodd" clip-rule="evenodd" d="M3.19258 22.613C28.2038 29.9033 48.446 48.7051 76.6204 48.7051C104.795 48.7051 113.862 34.6037 131.957 34.6037C150.052 34.6037 162.212 62.8065 187.294 62.8065C212.376 62.8065 230.214 29.9033 255.401 29.9033C280.588 29.9033 315.405 81.6084 339.471 81.6084C363.537 81.6084 394.808 1.80627 394.808 1.80627V167H3.19258C3.19258 167 3.02566 30.5146 3.19258 22.613Z" fill="url(#paint0_linear_8237_11)"/>
<circle cx="394" cy="4" r="4" fill="#07E098"/>
<circle cx="340.278" cy="80.9078" r="4" fill="#07E098"/>
<circle cx="256.209" cy="29.2028" r="4" fill="#07E098"/>
<circle cx="188.102" cy="62.106" r="4" fill="#07E098"/>
<circle cx="132.765" cy="33.9032" r="4" fill="#07E098"/>
<circle cx="77.4278" cy="48.0046" r="4" fill="#07E098"/>
<circle cx="4" cy="21.3687" r="4" fill="#07E098"/>
<defs>
<linearGradient id="paint0_linear_8237_11" x1="3.10912" y1="1.80627" x2="3.10912" y2="167" gradientUnits="userSpaceOnUse">
<stop stop-color="#00E096" stop-opacity="0.326568"/>
<stop offset="1" stop-color="white" stop-opacity="0.01"/>
</linearGradient>
</defs>
</svg>
