<svg width="549" height="238" viewBox="0 0 549 238" fill="none" xmlns="http://www.w3.org/2000/svg">
<g clip-path="url(#clip0_8256_16)">
<rect x="30" y="171" width="516" height="1" fill="#464E5F" fill-opacity="0.04"/>
<rect x="30" y="130" width="516" height="1" fill="#464E5F" fill-opacity="0.04"/>
<rect x="30" y="89" width="516" height="1" fill="#464E5F" fill-opacity="0.04"/>
<rect x="30" y="48" width="516" height="1" fill="#464E5F" fill-opacity="0.04"/>
<rect x="30" y="7" width="516" height="1" fill="#464E5F" fill-opacity="0.04"/>
</g>
<path opacity="0.7" d="M16.2088 171.572C16.2088 174.092 16.8328 176 19.2328 176C21.6208 176 22.2448 174.092 22.2448 171.572C22.2448 169.088 21.6208 167.192 19.2328 167.192C16.8328 167.192 16.2088 169.088 16.2088 171.572ZM21.1648 171.572C21.1648 173.444 20.9368 175.004 19.2328 175.004C17.5168 175.004 17.2888 173.444 17.2888 171.572C17.2888 169.772 17.5168 168.188 19.2328 168.188C20.9368 168.188 21.1648 169.772 21.1648 171.572Z" fill="#7B91B0"/>
<path opacity="0.7" d="M5.69394 135H6.79794V126.324H4.54194V127.32H5.69394V135ZM8.67369 130.572C8.67369 133.092 9.29769 135 11.6977 135C14.0857 135 14.7097 133.092 14.7097 130.572C14.7097 128.088 14.0857 126.192 11.6977 126.192C9.29769 126.192 8.67369 128.088 8.67369 130.572ZM13.6297 130.572C13.6297 132.444 13.4017 134.004 11.6977 134.004C9.98169 134.004 9.75369 132.444 9.75369 130.572C9.75369 128.772 9.98169 127.188 11.6977 127.188C13.4017 127.188 13.6297 128.772 13.6297 130.572ZM16.2088 130.572C16.2088 133.092 16.8328 135 19.2328 135C21.6208 135 22.2448 133.092 22.2448 130.572C22.2448 128.088 21.6208 126.192 19.2328 126.192C16.8328 126.192 16.2088 128.088 16.2088 130.572ZM21.1648 130.572C21.1648 132.444 20.9368 134.004 19.2328 134.004C17.5168 134.004 17.2888 132.444 17.2888 130.572C17.2888 128.772 17.5168 127.188 19.2328 127.188C20.9368 127.188 21.1648 128.772 21.1648 130.572Z" fill="#7B91B0"/>
<path opacity="0.7" d="M1.63934 92.904H7.41134V91.992H3.28334C4.83134 90.732 7.15934 88.896 7.15934 86.736C7.15934 85.128 6.10334 84.168 4.47134 84.168C2.91134 84.168 1.74734 85.128 1.67534 86.976H2.73134C2.77934 85.884 3.35534 85.104 4.48334 85.104C5.65934 85.104 6.07934 85.824 6.07934 86.784C6.07934 88.56 3.91934 90.288 1.63934 92.124V92.904ZM8.67369 88.572C8.67369 91.092 9.29769 93 11.6977 93C14.0857 93 14.7097 91.092 14.7097 88.572C14.7097 86.088 14.0857 84.192 11.6977 84.192C9.29769 84.192 8.67369 86.088 8.67369 88.572ZM13.6297 88.572C13.6297 90.444 13.4017 92.004 11.6977 92.004C9.98169 92.004 9.75369 90.444 9.75369 88.572C9.75369 86.772 9.98169 85.188 11.6977 85.188C13.4017 85.188 13.6297 86.772 13.6297 88.572ZM16.2088 88.572C16.2088 91.092 16.8328 93 19.2328 93C21.6208 93 22.2448 91.092 22.2448 88.572C22.2448 86.088 21.6208 84.192 19.2328 84.192C16.8328 84.192 16.2088 86.088 16.2088 88.572ZM21.1648 88.572C21.1648 90.444 20.9368 92.004 19.2328 92.004C17.5168 92.004 17.2888 90.444 17.2888 88.572C17.2888 86.772 17.5168 85.188 19.2328 85.188C20.9368 85.188 21.1648 86.772 21.1648 88.572Z" fill="#7B91B0"/>
<path opacity="0.7" d="M1.58328 46.508H2.65128C2.75928 45.668 3.37128 45.092 4.39128 45.092C5.43528 45.092 5.98728 45.668 5.98728 46.496C5.98728 47.504 5.20728 47.948 3.75528 47.96H3.46728V48.872H3.74328C5.30328 48.872 6.15528 49.34 6.15528 50.564C6.15528 51.452 5.60328 52.136 4.43928 52.136C3.28728 52.136 2.61528 51.428 2.50728 50.504H1.45128C1.58328 52.184 2.80728 53.06 4.45128 53.06C6.26328 53.06 7.19928 52.004 7.19928 50.66C7.19928 49.412 6.51528 48.668 5.50728 48.428V48.368C6.41928 48.164 7.04328 47.384 7.04328 46.388C7.04328 45.14 6.11928 44.156 4.42728 44.156C2.81928 44.156 1.69128 45.02 1.58328 46.508ZM8.67369 48.572C8.67369 51.092 9.29769 53 11.6977 53C14.0857 53 14.7097 51.092 14.7097 48.572C14.7097 46.088 14.0857 44.192 11.6977 44.192C9.29769 44.192 8.67369 46.088 8.67369 48.572ZM13.6297 48.572C13.6297 50.444 13.4017 52.004 11.6977 52.004C9.98169 52.004 9.75369 50.444 9.75369 48.572C9.75369 46.772 9.98169 45.188 11.6977 45.188C13.4017 45.188 13.6297 46.772 13.6297 48.572ZM16.2088 48.572C16.2088 51.092 16.8328 53 19.2328 53C21.6208 53 22.2448 51.092 22.2448 48.572C22.2448 46.088 21.6208 44.192 19.2328 44.192C16.8328 44.192 16.2088 46.088 16.2088 48.572ZM21.1648 48.572C21.1648 50.444 20.9368 52.004 19.2328 52.004C17.5168 52.004 17.2888 50.444 17.2888 48.572C17.2888 46.772 17.5168 45.188 19.2328 45.188C20.9368 45.188 21.1648 46.772 21.1648 48.572Z" fill="#7B91B0"/>
<path opacity="0.7" d="M5.30281 12H6.38281V10.068H7.58281V9.12H6.38281V3.408H5.07481L0.862813 9.24V10.068H5.30281V12ZM2.12281 9.12L5.35081 4.548V9.12H2.12281ZM8.67369 7.572C8.67369 10.092 9.29769 12 11.6977 12C14.0857 12 14.7097 10.092 14.7097 7.572C14.7097 5.088 14.0857 3.192 11.6977 3.192C9.29769 3.192 8.67369 5.088 8.67369 7.572ZM13.6297 7.572C13.6297 9.444 13.4017 11.004 11.6977 11.004C9.98169 11.004 9.75369 9.444 9.75369 7.572C9.75369 5.772 9.98169 4.188 11.6977 4.188C13.4017 4.188 13.6297 5.772 13.6297 7.572ZM16.2088 7.572C16.2088 10.092 16.8328 12 19.2328 12C21.6208 12 22.2448 10.092 22.2448 7.572C22.2448 5.088 21.6208 3.192 19.2328 3.192C16.8328 3.192 16.2088 5.088 16.2088 7.572ZM21.1648 7.572C21.1648 9.444 20.9368 11.004 19.2328 11.004C17.5168 11.004 17.2888 9.444 17.2888 7.572C17.2888 5.772 17.5168 4.188 19.2328 4.188C20.9368 4.188 21.1648 5.772 21.1648 7.572Z" fill="#7B91B0"/>
<path d="M49.7416 184.1C49.235 184.1 48.8233 184 48.5066 183.8C48.19 183.597 47.9583 183.315 47.8116 182.955C47.665 182.592 47.5916 182.168 47.5916 181.685C47.5916 181.635 47.5916 181.587 47.5916 181.54C47.5916 181.49 47.5916 181.442 47.5916 181.395H48.4316C48.4316 181.425 48.4316 181.458 48.4316 181.495C48.4316 181.528 48.4316 181.563 48.4316 181.6C48.4316 181.94 48.475 182.24 48.5616 182.5C48.6483 182.76 48.7866 182.963 48.9766 183.11C49.17 183.257 49.425 183.33 49.7416 183.33C50.055 183.33 50.3066 183.257 50.4966 183.11C50.6866 182.963 50.825 182.755 50.9116 182.485C50.9983 182.212 51.0416 181.89 51.0416 181.52V176.625H51.8916V181.63C51.8916 181.987 51.8533 182.315 51.7766 182.615C51.7 182.915 51.5766 183.177 51.4066 183.4C51.24 183.62 51.02 183.792 50.7466 183.915C50.4733 184.038 50.1383 184.1 49.7416 184.1ZM55.2118 184.1C54.8085 184.1 54.4551 184.037 54.1518 183.91C53.8518 183.783 53.6185 183.602 53.4518 183.365C53.2851 183.125 53.2018 182.838 53.2018 182.505C53.2018 182.158 53.2918 181.87 53.4718 181.64C53.6518 181.407 53.9051 181.225 54.2318 181.095C54.5585 180.965 54.9385 180.878 55.3718 180.835C56.0251 180.768 56.4901 180.703 56.7668 180.64C57.0435 180.573 57.1818 180.467 57.1818 180.32C57.1818 180.317 57.1818 180.315 57.1818 180.315C57.1818 180.312 57.1818 180.308 57.1818 180.305C57.1818 179.998 57.0568 179.77 56.8068 179.62C56.5568 179.467 56.1951 179.39 55.7218 179.39C55.2285 179.39 54.8451 179.477 54.5718 179.65C54.2985 179.82 54.1618 180.097 54.1618 180.48H53.3218C53.3218 180.083 53.4235 179.747 53.6268 179.47C53.8301 179.19 54.1118 178.977 54.4718 178.83C54.8351 178.683 55.2535 178.61 55.7268 178.61C56.1601 178.61 56.5501 178.677 56.8968 178.81C57.2468 178.94 57.5235 179.135 57.7268 179.395C57.9335 179.652 58.0368 179.97 58.0368 180.35C58.0368 180.42 58.0368 180.49 58.0368 180.56C58.0368 180.627 58.0368 180.695 58.0368 180.765V183C58.0368 183.117 58.0418 183.23 58.0518 183.34C58.0618 183.45 58.0785 183.547 58.1018 183.63C58.1318 183.73 58.1651 183.812 58.2018 183.875C58.2385 183.935 58.2685 183.977 58.2918 184H57.4368C57.4201 183.983 57.3951 183.945 57.3618 183.885C57.3285 183.822 57.2968 183.748 57.2668 183.665C57.2435 183.598 57.2251 183.515 57.2118 183.415C57.1985 183.312 57.1918 183.205 57.1918 183.095L57.3318 183.19C57.2285 183.37 57.0768 183.528 56.8768 183.665C56.6801 183.802 56.4418 183.908 56.1618 183.985C55.8818 184.062 55.5651 184.1 55.2118 184.1ZM55.3468 183.335C55.6901 183.335 56.0001 183.283 56.2768 183.18C56.5535 183.073 56.7735 182.917 56.9368 182.71C57.1001 182.503 57.1818 182.247 57.1818 181.94V180.885L57.3718 181.205C57.1585 181.288 56.8918 181.357 56.5718 181.41C56.2551 181.46 55.9235 181.502 55.5768 181.535C55.0735 181.582 54.6935 181.67 54.4368 181.8C54.1835 181.93 54.0568 182.148 54.0568 182.455C54.0568 182.745 54.1618 182.965 54.3718 183.115C54.5818 183.262 54.9068 183.335 55.3468 183.335ZM63.2505 184V181.455C63.2505 181.302 63.2505 181.177 63.2505 181.08C63.2505 180.98 63.2505 180.885 63.2505 180.795C63.2505 180.518 63.2039 180.277 63.1105 180.07C63.0172 179.863 62.8705 179.703 62.6705 179.59C62.4705 179.477 62.2089 179.42 61.8855 179.42C61.6022 179.42 61.3389 179.493 61.0955 179.64C60.8555 179.783 60.6622 179.978 60.5155 180.225C60.3722 180.468 60.3005 180.742 60.3005 181.045L59.8155 180.86C59.8155 180.443 59.9172 180.065 60.1205 179.725C60.3272 179.385 60.6005 179.115 60.9405 178.915C61.2839 178.712 61.6572 178.61 62.0605 178.61C62.4705 178.61 62.8289 178.688 63.1355 178.845C63.4422 179.002 63.6789 179.227 63.8455 179.52C64.0155 179.81 64.1005 180.16 64.1005 180.57C64.1005 180.717 64.1005 180.877 64.1005 181.05C64.1005 181.223 64.1005 181.385 64.1005 181.535V184H63.2505ZM59.4505 184V178.69H60.3005V184H59.4505Z" fill="#464E5F"/>
<path d="M94.4151 177.375L94.8001 176.89V180.26L94.5251 179.99H97.5101V180.74H94.5251L94.8001 180.455V184H93.9501V176.625H97.9551V177.375H94.4151ZM99.0117 181.685V180.925H103.117L102.967 181.175C102.967 181.155 102.967 181.137 102.967 181.12C102.967 181.1 102.967 181.082 102.967 181.065C102.967 180.758 102.902 180.478 102.772 180.225C102.645 179.968 102.455 179.763 102.202 179.61C101.948 179.457 101.635 179.38 101.262 179.38C100.885 179.38 100.553 179.46 100.267 179.62C99.98 179.78 99.7567 180.007 99.5967 180.3C99.4367 180.59 99.3567 180.937 99.3567 181.34C99.3567 181.75 99.4333 182.103 99.5867 182.4C99.7433 182.697 99.965 182.925 100.252 183.085C100.538 183.245 100.878 183.325 101.272 183.325C101.552 183.325 101.795 183.297 102.002 183.24C102.208 183.18 102.378 183.102 102.512 183.005C102.648 182.905 102.752 182.797 102.822 182.68C102.892 182.563 102.933 182.447 102.947 182.33H103.797C103.78 182.543 103.713 182.755 103.597 182.965C103.48 183.175 103.315 183.367 103.102 183.54C102.888 183.71 102.627 183.847 102.317 183.95C102.007 184.053 101.65 184.105 101.247 184.105C100.713 184.105 100.243 183.988 99.8367 183.755C99.43 183.522 99.11 183.198 98.8767 182.785C98.6467 182.372 98.5317 181.897 98.5317 181.36C98.5317 180.817 98.6483 180.34 98.8817 179.93C99.115 179.517 99.4367 179.193 99.8467 178.96C100.257 178.727 100.725 178.61 101.252 178.61C101.788 178.61 102.253 178.727 102.647 178.96C103.04 179.193 103.343 179.513 103.557 179.92C103.77 180.323 103.877 180.783 103.877 181.3C103.877 181.353 103.875 181.423 103.872 181.51C103.868 181.597 103.863 181.655 103.857 181.685H99.0117ZM107.797 184.1C107.387 184.1 107.003 184 106.647 183.8C106.29 183.597 106 183.318 105.777 182.965C105.557 182.612 105.447 182.208 105.447 181.755C105.447 181.745 105.447 181.737 105.447 181.73C105.447 181.723 105.447 181.715 105.447 181.705L106.057 181.69C106.057 181.697 106.057 181.705 106.057 181.715C106.057 181.722 106.057 181.728 106.057 181.735C106.057 182.022 106.132 182.283 106.282 182.52C106.435 182.757 106.635 182.945 106.882 183.085C107.128 183.225 107.393 183.295 107.677 183.295C108.147 183.295 108.537 183.135 108.847 182.815C109.16 182.492 109.317 182 109.317 181.34C109.317 180.677 109.162 180.187 108.852 179.87C108.542 179.55 108.15 179.39 107.677 179.39C107.393 179.39 107.128 179.46 106.882 179.6C106.635 179.737 106.435 179.922 106.282 180.155C106.132 180.388 106.057 180.65 106.057 180.94L105.447 180.92C105.447 180.463 105.557 180.062 105.777 179.715C106 179.368 106.29 179.098 106.647 178.905C107.003 178.708 107.387 178.61 107.797 178.61C108.227 178.61 108.623 178.717 108.987 178.93C109.35 179.14 109.642 179.448 109.862 179.855C110.082 180.262 110.192 180.757 110.192 181.34C110.192 181.933 110.083 182.437 109.867 182.85C109.65 183.26 109.36 183.572 108.997 183.785C108.633 183.995 108.233 184.1 107.797 184.1ZM105.202 184V176.185H106.057V184H105.202Z" fill="#464E5F"/>
<path d="M133.249 176.625H134.719V184H133.909V177.305L133.934 177.315L132.054 184H130.834L128.944 177.31L128.969 177.3V184H128.159V176.625H129.629L131.439 183.315H131.429L133.249 176.625ZM138.134 184.1C137.73 184.1 137.377 184.037 137.074 183.91C136.774 183.783 136.54 183.602 136.374 183.365C136.207 183.125 136.124 182.838 136.124 182.505C136.124 182.158 136.214 181.87 136.394 181.64C136.574 181.407 136.827 181.225 137.154 181.095C137.48 180.965 137.86 180.878 138.294 180.835C138.947 180.768 139.412 180.703 139.689 180.64C139.965 180.573 140.104 180.467 140.104 180.32C140.104 180.317 140.104 180.315 140.104 180.315C140.104 180.312 140.104 180.308 140.104 180.305C140.104 179.998 139.979 179.77 139.729 179.62C139.479 179.467 139.117 179.39 138.644 179.39C138.15 179.39 137.767 179.477 137.494 179.65C137.22 179.82 137.084 180.097 137.084 180.48H136.244C136.244 180.083 136.345 179.747 136.549 179.47C136.752 179.19 137.034 178.977 137.394 178.83C137.757 178.683 138.175 178.61 138.649 178.61C139.082 178.61 139.472 178.677 139.819 178.81C140.169 178.94 140.445 179.135 140.649 179.395C140.855 179.652 140.959 179.97 140.959 180.35C140.959 180.42 140.959 180.49 140.959 180.56C140.959 180.627 140.959 180.695 140.959 180.765V183C140.959 183.117 140.964 183.23 140.974 183.34C140.984 183.45 141 183.547 141.024 183.63C141.054 183.73 141.087 183.812 141.124 183.875C141.16 183.935 141.19 183.977 141.214 184H140.359C140.342 183.983 140.317 183.945 140.284 183.885C140.25 183.822 140.219 183.748 140.189 183.665C140.165 183.598 140.147 183.515 140.134 183.415C140.12 183.312 140.114 183.205 140.114 183.095L140.254 183.19C140.15 183.37 139.999 183.528 139.799 183.665C139.602 183.802 139.364 183.908 139.084 183.985C138.804 184.062 138.487 184.1 138.134 184.1ZM138.269 183.335C138.612 183.335 138.922 183.283 139.199 183.18C139.475 183.073 139.695 182.917 139.859 182.71C140.022 182.503 140.104 182.247 140.104 181.94V180.885L140.294 181.205C140.08 181.288 139.814 181.357 139.494 181.41C139.177 181.46 138.845 181.502 138.499 181.535C137.995 181.582 137.615 181.67 137.359 181.8C137.105 181.93 136.979 182.148 136.979 182.455C136.979 182.745 137.084 182.965 137.294 183.115C137.504 183.262 137.829 183.335 138.269 183.335ZM142.372 184V178.69H143.222V180.32L142.942 180.22C142.962 180.023 143.012 179.83 143.092 179.64C143.172 179.447 143.282 179.273 143.422 179.12C143.566 178.963 143.744 178.84 143.957 178.75C144.171 178.657 144.421 178.61 144.707 178.61C144.921 178.61 145.094 178.628 145.227 178.665C145.364 178.698 145.449 178.725 145.482 178.745L145.262 179.58C145.229 179.557 145.161 179.527 145.057 179.49C144.957 179.453 144.814 179.435 144.627 179.435C144.351 179.435 144.121 179.485 143.937 179.585C143.757 179.685 143.614 179.818 143.507 179.985C143.404 180.148 143.331 180.327 143.287 180.52C143.244 180.713 143.222 180.905 143.222 181.095V184H142.372Z" fill="#464E5F"/>
<path d="M174.643 184L176.673 176.605H178.003L180.018 184H179.138L177.333 177.16H177.343L175.523 184H174.643ZM175.693 182.045V181.295H178.983V182.045H175.693ZM181.17 186.185V178.69H182.02V186.185H181.17ZM183.765 184.1C183.355 184.1 182.972 184 182.615 183.8C182.259 183.597 181.969 183.318 181.745 182.965C181.525 182.612 181.415 182.208 181.415 181.755C181.415 181.745 181.415 181.737 181.415 181.73C181.415 181.723 181.415 181.715 181.415 181.705L182.025 181.69C182.025 181.697 182.025 181.705 182.025 181.715C182.025 181.722 182.025 181.728 182.025 181.735C182.025 182.022 182.1 182.283 182.25 182.52C182.404 182.757 182.604 182.945 182.85 183.085C183.097 183.225 183.362 183.295 183.645 183.295C184.115 183.295 184.505 183.135 184.815 182.815C185.129 182.492 185.285 182 185.285 181.34C185.285 180.677 185.13 180.187 184.82 179.87C184.51 179.55 184.119 179.39 183.645 179.39C183.362 179.39 183.097 179.46 182.85 179.6C182.604 179.737 182.404 179.922 182.25 180.155C182.1 180.388 182.025 180.65 182.025 180.94L181.415 180.92C181.415 180.463 181.525 180.062 181.745 179.715C181.969 179.368 182.259 179.098 182.615 178.905C182.972 178.708 183.355 178.61 183.765 178.61C184.195 178.61 184.592 178.717 184.955 178.93C185.319 179.14 185.61 179.448 185.83 179.855C186.05 180.262 186.16 180.757 186.16 181.34C186.16 181.933 186.052 182.437 185.835 182.85C185.619 183.26 185.329 183.572 184.965 183.785C184.602 183.995 184.202 184.1 183.765 184.1ZM187.489 184V178.69H188.339V180.32L188.059 180.22C188.079 180.023 188.129 179.83 188.209 179.64C188.289 179.447 188.399 179.273 188.539 179.12C188.682 178.963 188.86 178.84 189.074 178.75C189.287 178.657 189.537 178.61 189.824 178.61C190.037 178.61 190.21 178.628 190.344 178.665C190.48 178.698 190.565 178.725 190.599 178.745L190.379 179.58C190.345 179.557 190.277 179.527 190.174 179.49C190.074 179.453 189.93 179.435 189.744 179.435C189.467 179.435 189.237 179.485 189.054 179.585C188.874 179.685 188.73 179.818 188.624 179.985C188.52 180.148 188.447 180.327 188.404 180.52C188.36 180.713 188.339 180.905 188.339 181.095V184H187.489Z" fill="#464E5F"/>
<path d="M225.256 176.625H226.726V184H225.916V177.305L225.941 177.315L224.061 184H222.841L220.951 177.31L220.976 177.3V184H220.166V176.625H221.636L223.446 183.315H223.436L225.256 176.625ZM230.141 184.1C229.737 184.1 229.384 184.037 229.081 183.91C228.781 183.783 228.547 183.602 228.381 183.365C228.214 183.125 228.131 182.838 228.131 182.505C228.131 182.158 228.221 181.87 228.401 181.64C228.581 181.407 228.834 181.225 229.161 181.095C229.487 180.965 229.867 180.878 230.301 180.835C230.954 180.768 231.419 180.703 231.696 180.64C231.972 180.573 232.111 180.467 232.111 180.32C232.111 180.317 232.111 180.315 232.111 180.315C232.111 180.312 232.111 180.308 232.111 180.305C232.111 179.998 231.986 179.77 231.736 179.62C231.486 179.467 231.124 179.39 230.651 179.39C230.157 179.39 229.774 179.477 229.501 179.65C229.227 179.82 229.091 180.097 229.091 180.48H228.251C228.251 180.083 228.352 179.747 228.556 179.47C228.759 179.19 229.041 178.977 229.401 178.83C229.764 178.683 230.182 178.61 230.656 178.61C231.089 178.61 231.479 178.677 231.826 178.81C232.176 178.94 232.452 179.135 232.656 179.395C232.862 179.652 232.966 179.97 232.966 180.35C232.966 180.42 232.966 180.49 232.966 180.56C232.966 180.627 232.966 180.695 232.966 180.765V183C232.966 183.117 232.971 183.23 232.981 183.34C232.991 183.45 233.007 183.547 233.031 183.63C233.061 183.73 233.094 183.812 233.131 183.875C233.167 183.935 233.197 183.977 233.221 184H232.366C232.349 183.983 232.324 183.945 232.291 183.885C232.257 183.822 232.226 183.748 232.196 183.665C232.172 183.598 232.154 183.515 232.141 183.415C232.127 183.312 232.121 183.205 232.121 183.095L232.261 183.19C232.157 183.37 232.006 183.528 231.806 183.665C231.609 183.802 231.371 183.908 231.091 183.985C230.811 184.062 230.494 184.1 230.141 184.1ZM230.276 183.335C230.619 183.335 230.929 183.283 231.206 183.18C231.482 183.073 231.702 182.917 231.866 182.71C232.029 182.503 232.111 182.247 232.111 181.94V180.885L232.301 181.205C232.087 181.288 231.821 181.357 231.501 181.41C231.184 181.46 230.852 181.502 230.506 181.535C230.002 181.582 229.622 181.67 229.366 181.8C229.112 181.93 228.986 182.148 228.986 182.455C228.986 182.745 229.091 182.965 229.301 183.115C229.511 183.262 229.836 183.335 230.276 183.335ZM234.344 186.24C234.211 186.24 234.089 186.232 233.979 186.215C233.869 186.202 233.801 186.188 233.774 186.175V185.435C233.817 185.455 233.889 185.472 233.989 185.485C234.089 185.498 234.189 185.505 234.289 185.505C234.502 185.505 234.682 185.46 234.829 185.37C234.976 185.283 235.099 185.163 235.199 185.01C235.299 184.86 235.381 184.69 235.444 184.5L235.604 184.03L233.774 178.69H234.664L236.134 183.265H236.014L237.454 178.69H238.329L236.384 184.455C236.274 184.778 236.141 185.075 235.984 185.345C235.831 185.615 235.624 185.832 235.364 185.995C235.107 186.158 234.767 186.24 234.344 186.24Z" fill="#464E5F"/>
<path d="M267.79 184.1C267.284 184.1 266.872 184 266.555 183.8C266.239 183.597 266.007 183.315 265.86 182.955C265.714 182.592 265.64 182.168 265.64 181.685C265.64 181.635 265.64 181.587 265.64 181.54C265.64 181.49 265.64 181.442 265.64 181.395H266.48C266.48 181.425 266.48 181.458 266.48 181.495C266.48 181.528 266.48 181.563 266.48 181.6C266.48 181.94 266.524 182.24 266.61 182.5C266.697 182.76 266.835 182.963 267.025 183.11C267.219 183.257 267.474 183.33 267.79 183.33C268.104 183.33 268.355 183.257 268.545 183.11C268.735 182.963 268.874 182.755 268.96 182.485C269.047 182.212 269.09 181.89 269.09 181.52V176.625H269.94V181.63C269.94 181.987 269.902 182.315 269.825 182.615C269.749 182.915 269.625 183.177 269.455 183.4C269.289 183.62 269.069 183.792 268.795 183.915C268.522 184.038 268.187 184.1 267.79 184.1ZM273.366 184.095C272.986 184.095 272.669 184.03 272.416 183.9C272.162 183.767 271.961 183.595 271.811 183.385C271.664 183.175 271.559 182.948 271.496 182.705C271.436 182.458 271.406 182.222 271.406 181.995C271.406 181.868 271.406 181.738 271.406 181.605C271.406 181.468 271.406 181.332 271.406 181.195V178.69H272.261V181.085C272.261 181.208 272.261 181.33 272.261 181.45C272.261 181.57 272.261 181.683 272.261 181.79C272.261 182.06 272.297 182.31 272.371 182.54C272.447 182.77 272.579 182.957 272.766 183.1C272.952 183.24 273.209 183.31 273.536 183.31C273.842 183.31 274.111 183.218 274.341 183.035C274.571 182.848 274.751 182.617 274.881 182.34C275.011 182.06 275.076 181.782 275.076 181.505L275.571 181.71C275.571 182.003 275.519 182.292 275.416 182.575C275.312 182.855 275.164 183.11 274.971 183.34C274.781 183.57 274.549 183.753 274.276 183.89C274.006 184.027 273.702 184.095 273.366 184.095ZM275.076 184V178.69H275.926V184H275.076ZM281.202 184V181.455C281.202 181.302 281.202 181.177 281.202 181.08C281.202 180.98 281.202 180.885 281.202 180.795C281.202 180.518 281.155 180.277 281.062 180.07C280.968 179.863 280.822 179.703 280.622 179.59C280.422 179.477 280.16 179.42 279.837 179.42C279.553 179.42 279.29 179.493 279.047 179.64C278.807 179.783 278.613 179.978 278.467 180.225C278.323 180.468 278.252 180.742 278.252 181.045L277.767 180.86C277.767 180.443 277.868 180.065 278.072 179.725C278.278 179.385 278.552 179.115 278.892 178.915C279.235 178.712 279.608 178.61 280.012 178.61C280.422 178.61 280.78 178.688 281.087 178.845C281.393 179.002 281.63 179.227 281.797 179.52C281.967 179.81 282.052 180.16 282.052 180.57C282.052 180.717 282.052 180.877 282.052 181.05C282.052 181.223 282.052 181.385 282.052 181.535V184H281.202ZM277.402 184V178.69H278.252V184H277.402Z" fill="#464E5F"/>
<path d="M313.79 184.1C313.284 184.1 312.872 184 312.555 183.8C312.239 183.597 312.007 183.315 311.86 182.955C311.714 182.592 311.64 182.168 311.64 181.685C311.64 181.635 311.64 181.587 311.64 181.54C311.64 181.49 311.64 181.442 311.64 181.395H312.48C312.48 181.425 312.48 181.458 312.48 181.495C312.48 181.528 312.48 181.563 312.48 181.6C312.48 181.94 312.524 182.24 312.61 182.5C312.697 182.76 312.835 182.963 313.025 183.11C313.219 183.257 313.474 183.33 313.79 183.33C314.104 183.33 314.355 183.257 314.545 183.11C314.735 182.963 314.874 182.755 314.96 182.485C315.047 182.212 315.09 181.89 315.09 181.52V176.625H315.94V181.63C315.94 181.987 315.902 182.315 315.825 182.615C315.749 182.915 315.625 183.177 315.455 183.4C315.289 183.62 315.069 183.792 314.795 183.915C314.522 184.038 314.187 184.1 313.79 184.1ZM319.366 184.095C318.986 184.095 318.669 184.03 318.416 183.9C318.162 183.767 317.961 183.595 317.811 183.385C317.664 183.175 317.559 182.948 317.496 182.705C317.436 182.458 317.406 182.222 317.406 181.995C317.406 181.868 317.406 181.738 317.406 181.605C317.406 181.468 317.406 181.332 317.406 181.195V178.69H318.261V181.085C318.261 181.208 318.261 181.33 318.261 181.45C318.261 181.57 318.261 181.683 318.261 181.79C318.261 182.06 318.297 182.31 318.371 182.54C318.447 182.77 318.579 182.957 318.766 183.1C318.952 183.24 319.209 183.31 319.536 183.31C319.842 183.31 320.111 183.218 320.341 183.035C320.571 182.848 320.751 182.617 320.881 182.34C321.011 182.06 321.076 181.782 321.076 181.505L321.571 181.71C321.571 182.003 321.519 182.292 321.416 182.575C321.312 182.855 321.164 183.11 320.971 183.34C320.781 183.57 320.549 183.753 320.276 183.89C320.006 184.027 319.702 184.095 319.366 184.095ZM321.076 184V178.69H321.926V184H321.076ZM327.202 184V181.455C327.202 181.302 327.202 181.177 327.202 181.08C327.202 180.98 327.202 180.885 327.202 180.795C327.202 180.518 327.155 180.277 327.062 180.07C326.968 179.863 326.822 179.703 326.622 179.59C326.422 179.477 326.16 179.42 325.837 179.42C325.553 179.42 325.29 179.493 325.047 179.64C324.807 179.783 324.613 179.978 324.467 180.225C324.323 180.468 324.252 180.742 324.252 181.045L323.767 180.86C323.767 180.443 323.868 180.065 324.072 179.725C324.278 179.385 324.552 179.115 324.892 178.915C325.235 178.712 325.608 178.61 326.012 178.61C326.422 178.61 326.78 178.688 327.087 178.845C327.393 179.002 327.63 179.227 327.797 179.52C327.967 179.81 328.052 180.16 328.052 180.57C328.052 180.717 328.052 180.877 328.052 181.05C328.052 181.223 328.052 181.385 328.052 181.535V184H327.202ZM323.402 184V178.69H324.252V184H323.402Z" fill="#464E5F"/>
<path d="M361.622 184.1C361.115 184.1 360.703 184 360.387 183.8C360.07 183.597 359.838 183.315 359.692 182.955C359.545 182.592 359.472 182.168 359.472 181.685C359.472 181.635 359.472 181.587 359.472 181.54C359.472 181.49 359.472 181.442 359.472 181.395H360.312C360.312 181.425 360.312 181.458 360.312 181.495C360.312 181.528 360.312 181.563 360.312 181.6C360.312 181.94 360.355 182.24 360.442 182.5C360.528 182.76 360.667 182.963 360.857 183.11C361.05 183.257 361.305 183.33 361.622 183.33C361.935 183.33 362.187 183.257 362.377 183.11C362.567 182.963 362.705 182.755 362.792 182.485C362.878 182.212 362.922 181.89 362.922 181.52V176.625H363.772V181.63C363.772 181.987 363.733 182.315 363.657 182.615C363.58 182.915 363.457 183.177 363.287 183.4C363.12 183.62 362.9 183.792 362.627 183.915C362.353 184.038 362.018 184.1 361.622 184.1ZM367.197 184.095C366.817 184.095 366.5 184.03 366.247 183.9C365.993 183.767 365.792 183.595 365.642 183.385C365.495 183.175 365.39 182.948 365.327 182.705C365.267 182.458 365.237 182.222 365.237 181.995C365.237 181.868 365.237 181.738 365.237 181.605C365.237 181.468 365.237 181.332 365.237 181.195V178.69H366.092V181.085C366.092 181.208 366.092 181.33 366.092 181.45C366.092 181.57 366.092 181.683 366.092 181.79C366.092 182.06 366.128 182.31 366.202 182.54C366.278 182.77 366.41 182.957 366.597 183.1C366.783 183.24 367.04 183.31 367.367 183.31C367.673 183.31 367.942 183.218 368.172 183.035C368.402 182.848 368.582 182.617 368.712 182.34C368.842 182.06 368.907 181.782 368.907 181.505L369.402 181.71C369.402 182.003 369.35 182.292 369.247 182.575C369.143 182.855 368.995 183.11 368.802 183.34C368.612 183.57 368.38 183.753 368.107 183.89C367.837 184.027 367.533 184.095 367.197 184.095ZM368.907 184V178.69H369.757V184H368.907ZM372.148 176.185V184H371.308V176.185H372.148Z" fill="#464E5F"/>
<path d="M393.465 184.1C392.955 184.1 392.519 184.02 392.155 183.86C391.795 183.697 391.519 183.452 391.325 183.125C391.132 182.798 391.035 182.392 391.035 181.905C391.035 181.838 391.035 181.782 391.035 181.735C391.035 181.688 391.035 181.632 391.035 181.565H391.89C391.89 181.628 391.89 181.682 391.89 181.725C391.89 181.768 391.89 181.823 391.89 181.89C391.89 182.4 392.024 182.768 392.29 182.995C392.557 183.218 392.945 183.33 393.455 183.33C393.982 183.33 394.38 183.24 394.65 183.06C394.92 182.88 395.055 182.588 395.055 182.185C395.055 181.902 394.977 181.667 394.82 181.48C394.667 181.29 394.454 181.13 394.18 181C393.907 180.867 393.589 180.745 393.225 180.635C392.815 180.508 392.449 180.348 392.125 180.155C391.805 179.962 391.552 179.723 391.365 179.44C391.182 179.153 391.09 178.805 391.09 178.395C391.09 177.995 391.187 177.657 391.38 177.38C391.577 177.103 391.85 176.893 392.2 176.75C392.55 176.607 392.957 176.535 393.42 176.535C393.91 176.535 394.335 176.612 394.695 176.765C395.059 176.915 395.339 177.145 395.535 177.455C395.735 177.762 395.835 178.148 395.835 178.615C395.835 178.688 395.835 178.752 395.835 178.805C395.835 178.855 395.835 178.917 395.835 178.99H394.98C394.98 178.927 394.98 178.87 394.98 178.82C394.98 178.77 394.98 178.713 394.98 178.65C394.98 178.163 394.849 177.818 394.585 177.615C394.322 177.408 393.939 177.305 393.435 177.305C392.952 177.305 392.579 177.39 392.315 177.56C392.052 177.73 391.92 178.008 391.92 178.395C391.92 178.685 392 178.925 392.16 179.115C392.324 179.302 392.545 179.462 392.825 179.595C393.105 179.725 393.425 179.85 393.785 179.97C394.222 180.113 394.597 180.277 394.91 180.46C395.227 180.64 395.469 180.865 395.635 181.135C395.805 181.405 395.89 181.745 395.89 182.155C395.89 182.565 395.792 182.915 395.595 183.205C395.402 183.495 395.124 183.717 394.76 183.87C394.4 184.023 393.969 184.1 393.465 184.1ZM397.439 181.685V180.925H401.544L401.394 181.175C401.394 181.155 401.394 181.137 401.394 181.12C401.394 181.1 401.394 181.082 401.394 181.065C401.394 180.758 401.329 180.478 401.199 180.225C401.073 179.968 400.883 179.763 400.629 179.61C400.376 179.457 400.063 179.38 399.689 179.38C399.313 179.38 398.981 179.46 398.694 179.62C398.408 179.78 398.184 180.007 398.024 180.3C397.864 180.59 397.784 180.937 397.784 181.34C397.784 181.75 397.861 182.103 398.014 182.4C398.171 182.697 398.393 182.925 398.679 183.085C398.966 183.245 399.306 183.325 399.699 183.325C399.979 183.325 400.223 183.297 400.429 183.24C400.636 183.18 400.806 183.102 400.939 183.005C401.076 182.905 401.179 182.797 401.249 182.68C401.319 182.563 401.361 182.447 401.374 182.33H402.224C402.208 182.543 402.141 182.755 402.024 182.965C401.908 183.175 401.743 183.367 401.529 183.54C401.316 183.71 401.054 183.847 400.744 183.95C400.434 184.053 400.078 184.105 399.674 184.105C399.141 184.105 398.671 183.988 398.264 183.755C397.858 183.522 397.538 183.198 397.304 182.785C397.074 182.372 396.959 181.897 396.959 181.36C396.959 180.817 397.076 180.34 397.309 179.93C397.543 179.517 397.864 179.193 398.274 178.96C398.684 178.727 399.153 178.61 399.679 178.61C400.216 178.61 400.681 178.727 401.074 178.96C401.468 179.193 401.771 179.513 401.984 179.92C402.198 180.323 402.304 180.783 402.304 181.3C402.304 181.353 402.303 181.423 402.299 181.51C402.296 181.597 402.291 181.655 402.284 181.685H397.439ZM403.629 186.185V178.69H404.479V186.185H403.629ZM406.224 184.1C405.814 184.1 405.431 184 405.074 183.8C404.718 183.597 404.428 183.318 404.204 182.965C403.984 182.612 403.874 182.208 403.874 181.755C403.874 181.745 403.874 181.737 403.874 181.73C403.874 181.723 403.874 181.715 403.874 181.705L404.484 181.69C404.484 181.697 404.484 181.705 404.484 181.715C404.484 181.722 404.484 181.728 404.484 181.735C404.484 182.022 404.559 182.283 404.709 182.52C404.863 182.757 405.063 182.945 405.309 183.085C405.556 183.225 405.821 183.295 406.104 183.295C406.574 183.295 406.964 183.135 407.274 182.815C407.588 182.492 407.744 182 407.744 181.34C407.744 180.677 407.589 180.187 407.279 179.87C406.969 179.55 406.578 179.39 406.104 179.39C405.821 179.39 405.556 179.46 405.309 179.6C405.063 179.737 404.863 179.922 404.709 180.155C404.559 180.388 404.484 180.65 404.484 180.94L403.874 180.92C403.874 180.463 403.984 180.062 404.204 179.715C404.428 179.368 404.718 179.098 405.074 178.905C405.431 178.708 405.814 178.61 406.224 178.61C406.654 178.61 407.051 178.717 407.414 178.93C407.778 179.14 408.069 179.448 408.289 179.855C408.509 180.262 408.619 180.757 408.619 181.34C408.619 181.933 408.511 182.437 408.294 182.85C408.078 183.26 407.788 183.572 407.424 183.785C407.061 183.995 406.661 184.1 406.224 184.1ZM411.94 184.08C411.777 184.08 411.617 184.062 411.46 184.025C411.304 183.988 411.162 183.923 411.035 183.83C410.912 183.733 410.814 183.598 410.74 183.425C410.667 183.248 410.63 183.022 410.63 182.745C410.63 182.675 410.63 182.603 410.63 182.53C410.63 182.453 410.63 182.373 410.63 182.29V179.44H409.335V178.69H410.165C410.279 178.69 410.367 178.687 410.43 178.68C410.494 178.67 410.539 178.648 410.565 178.615C410.595 178.578 410.614 178.523 410.62 178.45C410.627 178.373 410.63 178.268 410.63 178.135V176.93H411.485V178.69H413.145V179.44H411.485V182.015C411.485 182.088 411.485 182.16 411.485 182.23C411.485 182.3 411.485 182.365 411.485 182.425C411.485 182.708 411.519 182.93 411.585 183.09C411.655 183.25 411.81 183.33 412.05 183.33C412.147 183.33 412.239 183.322 412.325 183.305C412.412 183.288 412.477 183.272 412.52 183.255V183.995C412.464 184.015 412.384 184.033 412.28 184.05C412.18 184.07 412.067 184.08 411.94 184.08Z" fill="#464E5F"/>
<path d="M441.705 184.1C441.275 184.1 440.88 184.015 440.52 183.845C440.163 183.675 439.852 183.428 439.585 183.105C439.322 182.778 439.117 182.38 438.97 181.91C438.827 181.44 438.755 180.905 438.755 180.305C438.755 179.705 438.827 179.172 438.97 178.705C439.117 178.235 439.322 177.84 439.585 177.52C439.852 177.197 440.165 176.952 440.525 176.785C440.885 176.618 441.278 176.535 441.705 176.535C442.135 176.535 442.53 176.618 442.89 176.785C443.25 176.952 443.562 177.197 443.825 177.52C444.092 177.84 444.297 178.235 444.44 178.705C444.587 179.172 444.66 179.705 444.66 180.305C444.66 180.905 444.587 181.44 444.44 181.91C444.297 182.38 444.092 182.778 443.825 183.105C443.562 183.428 443.25 183.675 442.89 183.845C442.53 184.015 442.135 184.1 441.705 184.1ZM441.705 183.33C442.115 183.33 442.477 183.218 442.79 182.995C443.103 182.772 443.348 182.437 443.525 181.99C443.702 181.54 443.79 180.978 443.79 180.305C443.79 179.628 443.7 179.068 443.52 178.625C443.343 178.182 443.098 177.852 442.785 177.635C442.472 177.418 442.112 177.31 441.705 177.31C441.302 177.31 440.942 177.418 440.625 177.635C440.312 177.852 440.065 178.182 439.885 178.625C439.708 179.068 439.62 179.628 439.62 180.305C439.62 180.982 439.708 181.545 439.885 181.995C440.065 182.442 440.312 182.777 440.625 183C440.942 183.22 441.302 183.33 441.705 183.33ZM448.449 184.1C447.942 184.1 447.482 183.99 447.069 183.77C446.656 183.547 446.327 183.228 446.084 182.815C445.844 182.402 445.724 181.91 445.724 181.34C445.724 180.77 445.844 180.282 446.084 179.875C446.327 179.465 446.656 179.152 447.069 178.935C447.482 178.718 447.942 178.61 448.449 178.61C448.836 178.61 449.181 178.67 449.484 178.79C449.787 178.907 450.044 179.063 450.254 179.26C450.464 179.457 450.624 179.673 450.734 179.91C450.847 180.143 450.904 180.377 450.904 180.61C450.904 180.613 450.904 180.618 450.904 180.625C450.904 180.632 450.904 180.638 450.904 180.645H450.059C450.059 180.628 450.057 180.61 450.054 180.59C450.051 180.567 450.047 180.543 450.044 180.52C450.017 180.297 449.932 180.102 449.789 179.935C449.646 179.765 449.459 179.632 449.229 179.535C448.999 179.438 448.737 179.39 448.444 179.39C448.114 179.39 447.807 179.462 447.524 179.605C447.244 179.745 447.017 179.96 446.844 180.25C446.674 180.537 446.589 180.9 446.589 181.34C446.589 181.777 446.674 182.142 446.844 182.435C447.014 182.728 447.239 182.95 447.519 183.1C447.802 183.247 448.111 183.32 448.444 183.32C448.804 183.32 449.101 183.263 449.334 183.15C449.567 183.037 449.742 182.887 449.859 182.7C449.979 182.51 450.046 182.307 450.059 182.09H450.904C450.904 182.33 450.851 182.57 450.744 182.81C450.637 183.047 450.481 183.263 450.274 183.46C450.067 183.653 449.811 183.808 449.504 183.925C449.201 184.042 448.849 184.1 448.449 184.1ZM454.22 184.08C454.057 184.08 453.897 184.062 453.74 184.025C453.584 183.988 453.442 183.923 453.315 183.83C453.192 183.733 453.094 183.598 453.02 183.425C452.947 183.248 452.91 183.022 452.91 182.745C452.91 182.675 452.91 182.603 452.91 182.53C452.91 182.453 452.91 182.373 452.91 182.29V179.44H451.615V178.69H452.445C452.559 178.69 452.647 178.687 452.71 178.68C452.774 178.67 452.819 178.648 452.845 178.615C452.875 178.578 452.894 178.523 452.9 178.45C452.907 178.373 452.91 178.268 452.91 178.135V176.93H453.765V178.69H455.425V179.44H453.765V182.015C453.765 182.088 453.765 182.16 453.765 182.23C453.765 182.3 453.765 182.365 453.765 182.425C453.765 182.708 453.799 182.93 453.865 183.09C453.935 183.25 454.09 183.33 454.33 183.33C454.427 183.33 454.519 183.322 454.605 183.305C454.692 183.288 454.757 183.272 454.8 183.255V183.995C454.744 184.015 454.664 184.033 454.56 184.05C454.46 184.07 454.347 184.08 454.22 184.08Z" fill="#464E5F"/>
<path d="M485.846 184H485.016V176.625H486.411L489.541 183.51L489.476 183.55V176.625H490.306V184H488.891L485.771 177.125L485.846 177.09V184ZM494.29 184.095C493.756 184.095 493.285 183.977 492.875 183.74C492.468 183.5 492.148 183.173 491.915 182.76C491.685 182.343 491.57 181.87 491.57 181.34C491.57 180.81 491.685 180.34 491.915 179.93C492.148 179.52 492.468 179.198 492.875 178.965C493.285 178.732 493.756 178.615 494.29 178.615C494.823 178.615 495.293 178.732 495.7 178.965C496.11 179.198 496.43 179.52 496.66 179.93C496.893 180.34 497.01 180.81 497.01 181.34C497.01 181.87 496.893 182.343 496.66 182.76C496.43 183.173 496.11 183.5 495.7 183.74C495.293 183.977 494.823 184.095 494.29 184.095ZM494.29 183.315C494.656 183.315 494.98 183.233 495.26 183.07C495.54 182.907 495.758 182.677 495.915 182.38C496.075 182.083 496.155 181.737 496.155 181.34C496.155 180.943 496.075 180.6 495.915 180.31C495.758 180.017 495.54 179.792 495.26 179.635C494.98 179.475 494.656 179.395 494.29 179.395C493.926 179.395 493.603 179.475 493.32 179.635C493.04 179.792 492.82 180.017 492.66 180.31C492.503 180.6 492.425 180.943 492.425 181.34C492.425 181.737 492.503 182.083 492.66 182.38C492.82 182.677 493.04 182.907 493.32 183.07C493.603 183.233 493.926 183.315 494.29 183.315ZM502.387 178.69L500.607 184H499.492L497.672 178.69H498.552L500.117 183.55H499.982L501.507 178.69H502.387Z" fill="#464E5F"/>
<path d="M531.045 184V176.625H532.895C533.382 176.625 533.82 176.71 534.21 176.88C534.603 177.05 534.938 177.295 535.215 177.615C535.495 177.932 535.71 178.318 535.86 178.775C536.01 179.228 536.085 179.74 536.085 180.31C536.085 180.88 536.01 181.393 535.86 181.85C535.71 182.303 535.495 182.69 535.215 183.01C534.938 183.33 534.603 183.575 534.21 183.745C533.82 183.915 533.382 184 532.895 184H531.045ZM531.905 183.735L531.52 183.25H532.795C533.268 183.25 533.687 183.132 534.05 182.895C534.417 182.655 534.703 182.315 534.91 181.875C535.117 181.435 535.22 180.913 535.22 180.31C535.22 179.703 535.117 179.182 534.91 178.745C534.703 178.305 534.417 177.967 534.05 177.73C533.687 177.493 533.268 177.375 532.795 177.375H531.52L531.905 176.89V183.735ZM537.63 181.685V180.925H541.735L541.585 181.175C541.585 181.155 541.585 181.137 541.585 181.12C541.585 181.1 541.585 181.082 541.585 181.065C541.585 180.758 541.52 180.478 541.39 180.225C541.263 179.968 541.073 179.763 540.82 179.61C540.567 179.457 540.253 179.38 539.88 179.38C539.503 179.38 539.172 179.46 538.885 179.62C538.598 179.78 538.375 180.007 538.215 180.3C538.055 180.59 537.975 180.937 537.975 181.34C537.975 181.75 538.052 182.103 538.205 182.4C538.362 182.697 538.583 182.925 538.87 183.085C539.157 183.245 539.497 183.325 539.89 183.325C540.17 183.325 540.413 183.297 540.62 183.24C540.827 183.18 540.997 183.102 541.13 183.005C541.267 182.905 541.37 182.797 541.44 182.68C541.51 182.563 541.552 182.447 541.565 182.33H542.415C542.398 182.543 542.332 182.755 542.215 182.965C542.098 183.175 541.933 183.367 541.72 183.54C541.507 183.71 541.245 183.847 540.935 183.95C540.625 184.053 540.268 184.105 539.865 184.105C539.332 184.105 538.862 183.988 538.455 183.755C538.048 183.522 537.728 183.198 537.495 182.785C537.265 182.372 537.15 181.897 537.15 181.36C537.15 180.817 537.267 180.34 537.5 179.93C537.733 179.517 538.055 179.193 538.465 178.96C538.875 178.727 539.343 178.61 539.87 178.61C540.407 178.61 540.872 178.727 541.265 178.96C541.658 179.193 541.962 179.513 542.175 179.92C542.388 180.323 542.495 180.783 542.495 181.3C542.495 181.353 542.493 181.423 542.49 181.51C542.487 181.597 542.482 181.655 542.475 181.685H537.63ZM545.85 184.1C545.53 184.1 545.233 184.067 544.96 184C544.69 183.93 544.453 183.83 544.25 183.7C544.05 183.567 543.893 183.403 543.78 183.21C543.67 183.017 543.615 182.795 543.615 182.545C543.615 182.518 543.615 182.492 543.615 182.465C543.615 182.435 543.615 182.41 543.615 182.39H544.47C544.47 182.41 544.47 182.427 544.47 182.44C544.47 182.453 544.47 182.473 544.47 182.5C544.47 182.77 544.595 182.977 544.845 183.12C545.095 183.26 545.436 183.33 545.87 183.33C546.136 183.33 546.375 183.303 546.585 183.25C546.795 183.197 546.96 183.115 547.08 183.005C547.203 182.895 547.265 182.757 547.265 182.59C547.265 182.313 547.135 182.117 546.875 182C546.618 181.88 546.233 181.777 545.72 181.69C545.45 181.643 545.193 181.583 544.95 181.51C544.706 181.433 544.49 181.335 544.3 181.215C544.113 181.095 543.965 180.947 543.855 180.77C543.748 180.59 543.695 180.375 543.695 180.125C543.695 179.802 543.79 179.528 543.98 179.305C544.173 179.078 544.433 178.907 544.76 178.79C545.086 178.67 545.45 178.61 545.85 178.61C546.236 178.61 546.593 178.672 546.92 178.795C547.246 178.918 547.508 179.098 547.705 179.335C547.905 179.568 548.005 179.857 548.005 180.2C548.005 180.213 548.005 180.23 548.005 180.25C548.005 180.267 548.005 180.283 548.005 180.3H547.155C547.155 180.283 547.155 180.27 547.155 180.26C547.155 180.25 547.155 180.238 547.155 180.225C547.155 180.032 547.093 179.873 546.97 179.75C546.846 179.623 546.686 179.53 546.49 179.47C546.293 179.407 546.083 179.375 545.86 179.375C545.65 179.375 545.443 179.398 545.24 179.445C545.036 179.488 544.868 179.562 544.735 179.665C544.601 179.768 544.535 179.91 544.535 180.09C544.535 180.27 544.596 180.415 544.72 180.525C544.846 180.632 545.023 180.72 545.25 180.79C545.48 180.857 545.75 180.918 546.06 180.975C546.336 181.025 546.598 181.088 546.845 181.165C547.091 181.238 547.308 181.333 547.495 181.45C547.685 181.567 547.833 181.715 547.94 181.895C548.05 182.072 548.105 182.288 548.105 182.545C548.105 182.805 548.045 183.032 547.925 183.225C547.808 183.418 547.645 183.58 547.435 183.71C547.228 183.84 546.988 183.937 546.715 184C546.445 184.067 546.156 184.1 545.85 184.1Z" fill="#464E5F"/>
<g clip-path="url(#clip1_8256_16)">
<mask id="mask0_8256_16" style="mask-type:luminance" maskUnits="userSpaceOnUse" x="46" y="8" width="484" height="163">
<rect x="46" y="8" width="484" height="163" fill="white"/>
</mask>
<g mask="url(#mask0_8256_16)">
<path d="M41 70.699C53 45.3657 92.4 2.99901 154 36.199C231 77.699 246 105.199 320 70.699C394 36.199 428 28.699 486 70.699C532.4 104.299 559 84.699 566.5 70.699" stroke="#3CD856" stroke-width="4"/>
<path d="M41 43.9999C66 15.4999 90.4 41.7999 152 74.9999C229 116.5 234.473 90.0136 307.5 53.4999C374.5 19.9999 426.5 56 484.5 97.9999C530.9 131.6 560.5 112 568 97.9999" stroke="#8950FC" stroke-width="4"/>
<path d="M41 43.9999C66 15.4999 90.4 41.7999 152 74.9999C229 116.5 234.473 90.0136 307.5 53.4999C374.5 19.9999 426.5 56 484.5 97.9999C530.9 131.6 560.5 112 568 97.9999" stroke="#A700FF" stroke-width="4"/>
<path d="M41 75.1474C66 46.6474 90.4 72.9474 152 106.147C229 147.647 229.973 72.5137 303 36C370 2.50002 428 43.5 486 85.5C532.4 119.1 560.5 143.147 568 129.147" stroke="#EF4444" stroke-width="4"/>
</g>
</g>
<circle cx="366" cy="24" r="7" fill="#F64E60"/>
<path d="M366 173.469L366 5.53145" stroke="#F64E60" stroke-dasharray="2 2"/>
<g clip-path="url(#clip2_8256_16)">
<g clip-path="url(#clip3_8256_16)">
<rect x="343" y="226" width="12" height="12" rx="2" fill="#3CD856"/>
<path d="M366.074 231.76C366.074 232.896 365.796 233.742 365.24 234.298C364.684 234.85 363.916 235.126 362.936 235.126C361.96 235.126 361.194 234.85 360.638 234.298C360.086 233.742 359.81 232.896 359.81 231.76C359.81 231.592 359.81 231.414 359.81 231.226C359.81 231.034 359.81 230.834 359.81 230.626V226.15H361.112V230.77C361.112 230.962 361.112 231.14 361.112 231.304C361.112 231.468 361.112 231.618 361.112 231.754C361.112 232.554 361.264 233.132 361.568 233.488C361.872 233.84 362.328 234.016 362.936 234.016C363.548 234.016 364.006 233.84 364.31 233.488C364.618 233.132 364.772 232.554 364.772 231.754V226.15H366.074V231.76ZM372.275 235V232.06C372.275 231.888 372.275 231.742 372.275 231.622C372.275 231.502 372.275 231.39 372.275 231.286C372.275 230.974 372.227 230.7 372.131 230.464C372.035 230.224 371.877 230.038 371.657 229.906C371.437 229.77 371.143 229.702 370.775 229.702C370.451 229.702 370.157 229.782 369.893 229.942C369.633 230.102 369.425 230.32 369.269 230.596C369.117 230.868 369.041 231.178 369.041 231.526L368.483 231.25C368.483 230.734 368.605 230.272 368.849 229.864C369.093 229.452 369.419 229.126 369.827 228.886C370.239 228.646 370.689 228.526 371.177 228.526C371.681 228.526 372.111 228.624 372.467 228.82C372.827 229.012 373.101 229.288 373.289 229.648C373.481 230.004 373.577 230.43 373.577 230.926C373.577 231.11 373.577 231.314 373.577 231.538C373.577 231.762 373.577 231.978 373.577 232.186V235H372.275ZM367.739 235V228.628H369.041V235H367.739ZM375.233 235V228.628H376.517V235H375.233ZM375.881 227.308C375.657 227.308 375.463 227.248 375.299 227.128C375.139 227.004 375.059 226.834 375.059 226.618C375.059 226.406 375.139 226.24 375.299 226.12C375.463 225.996 375.657 225.934 375.881 225.934C376.101 225.934 376.291 225.996 376.451 226.12C376.615 226.24 376.697 226.406 376.697 226.618C376.697 226.834 376.615 227.004 376.451 227.128C376.291 227.248 376.101 227.308 375.881 227.308ZM380.89 235.126C380.366 235.126 379.884 235 379.444 234.748C379.004 234.492 378.652 234.116 378.388 233.62C378.124 233.124 377.992 232.518 377.992 231.802C377.992 231.102 378.126 230.508 378.394 230.02C378.662 229.532 379.016 229.162 379.456 228.91C379.896 228.654 380.374 228.526 380.89 228.526C381.386 228.526 381.846 228.646 382.27 228.886C382.698 229.126 383.042 229.46 383.302 229.888C383.562 230.312 383.692 230.802 383.692 231.358C383.692 231.374 383.692 231.39 383.692 231.406C383.692 231.418 383.692 231.43 383.692 231.442L382.936 231.466C382.936 231.454 382.936 231.442 382.936 231.43C382.936 231.414 382.936 231.4 382.936 231.388C382.936 231.056 382.852 230.762 382.684 230.506C382.516 230.246 382.294 230.042 382.018 229.894C381.746 229.742 381.456 229.666 381.148 229.666C380.632 229.666 380.2 229.84 379.852 230.188C379.504 230.532 379.33 231.07 379.33 231.802C379.33 232.53 379.504 233.07 379.852 233.422C380.204 233.77 380.636 233.944 381.148 233.944C381.468 233.944 381.764 233.868 382.036 233.716C382.308 233.56 382.526 233.348 382.69 233.08C382.854 232.812 382.936 232.506 382.936 232.162L383.692 232.192C383.692 232.744 383.566 233.242 383.314 233.686C383.066 234.13 382.73 234.482 382.306 234.742C381.886 234.998 381.414 235.126 380.89 235.126ZM382.936 237.622V228.628H384.238V237.622H382.936ZM388.225 235.114C387.773 235.114 387.397 235.038 387.097 234.886C386.797 234.73 386.559 234.528 386.383 234.28C386.207 234.028 386.083 233.754 386.011 233.458C385.939 233.158 385.903 232.866 385.903 232.582C385.903 232.434 385.903 232.28 385.903 232.12C385.903 231.956 385.903 231.792 385.903 231.628V228.628H387.211V231.442C387.211 231.586 387.211 231.728 387.211 231.868C387.211 232.004 387.211 232.132 387.211 232.252C387.211 232.56 387.251 232.844 387.331 233.104C387.411 233.36 387.551 233.568 387.751 233.728C387.955 233.884 388.239 233.962 388.603 233.962C388.943 233.962 389.239 233.862 389.491 233.662C389.743 233.458 389.939 233.202 390.079 232.894C390.219 232.582 390.289 232.27 390.289 231.958L390.859 232.264C390.859 232.632 390.797 232.986 390.673 233.326C390.553 233.666 390.379 233.972 390.151 234.244C389.923 234.512 389.645 234.724 389.317 234.88C388.993 235.036 388.629 235.114 388.225 235.114ZM390.289 235V228.628H391.591V235H390.289ZM393.701 232.27V231.256H398.393L398.213 231.556C398.213 231.532 398.213 231.508 398.213 231.484C398.213 231.456 398.213 231.432 398.213 231.412C398.213 231.088 398.143 230.79 398.003 230.518C397.863 230.242 397.653 230.022 397.373 229.858C397.097 229.69 396.751 229.606 396.335 229.606C395.919 229.606 395.553 229.696 395.237 229.876C394.925 230.052 394.681 230.304 394.505 230.632C394.333 230.956 394.247 231.346 394.247 231.802C394.247 232.266 394.331 232.666 394.499 233.002C394.667 233.334 394.909 233.59 395.225 233.77C395.541 233.95 395.919 234.04 396.359 234.04C396.667 234.04 396.933 234.01 397.157 233.95C397.385 233.886 397.571 233.802 397.715 233.698C397.863 233.594 397.975 233.482 398.051 233.362C398.127 233.238 398.171 233.116 398.183 232.996H399.479C399.455 233.256 399.369 233.514 399.221 233.77C399.077 234.022 398.871 234.252 398.603 234.46C398.339 234.664 398.015 234.828 397.631 234.952C397.251 235.072 396.813 235.132 396.317 235.132C395.653 235.132 395.071 234.992 394.571 234.712C394.071 234.432 393.681 234.044 393.401 233.548C393.121 233.048 392.981 232.476 392.981 231.832C392.981 231.176 393.123 230.6 393.407 230.104C393.691 229.608 394.085 229.222 394.589 228.946C395.093 228.666 395.671 228.526 396.323 228.526C396.987 228.526 397.561 228.666 398.045 228.946C398.533 229.226 398.909 229.612 399.173 230.104C399.437 230.596 399.569 231.162 399.569 231.802C399.569 231.878 399.567 231.966 399.563 232.066C399.559 232.166 399.553 232.234 399.545 232.27H393.701ZM410.722 231.868C410.722 232.236 410.654 232.61 410.518 232.99C410.382 233.37 410.176 233.722 409.9 234.046C409.624 234.37 409.276 234.632 408.856 234.832C408.436 235.028 407.942 235.126 407.374 235.126C406.602 235.126 405.944 234.932 405.4 234.544C404.86 234.152 404.448 233.614 404.164 232.93C403.88 232.246 403.738 231.462 403.738 230.578C403.738 229.69 403.88 228.906 404.164 228.226C404.448 227.542 404.86 227.006 405.4 226.618C405.944 226.23 406.602 226.036 407.374 226.036C408.018 226.036 408.566 226.162 409.018 226.414C409.474 226.666 409.836 226.99 410.104 227.386C410.376 227.782 410.556 228.194 410.644 228.622C410.696 228.854 410.722 229.074 410.722 229.282H409.414C409.414 229.17 409.404 229.048 409.384 228.916C409.34 228.596 409.232 228.302 409.06 228.034C408.892 227.766 408.666 227.552 408.382 227.392C408.102 227.232 407.766 227.152 407.374 227.152C406.918 227.152 406.516 227.28 406.168 227.536C405.82 227.788 405.548 228.168 405.352 228.676C405.16 229.184 405.064 229.818 405.064 230.578C405.064 231.334 405.16 231.968 405.352 232.48C405.548 232.988 405.82 233.372 406.168 233.632C406.516 233.888 406.918 234.016 407.374 234.016C407.706 234.016 407.998 233.956 408.25 233.836C408.502 233.716 408.714 233.554 408.886 233.35C409.058 233.146 409.188 232.916 409.276 232.66C409.368 232.404 409.414 232.14 409.414 231.868H410.722ZM414.463 235.114C414.011 235.114 413.635 235.038 413.335 234.886C413.035 234.73 412.797 234.528 412.621 234.28C412.445 234.028 412.321 233.754 412.249 233.458C412.177 233.158 412.141 232.866 412.141 232.582C412.141 232.434 412.141 232.28 412.141 232.12C412.141 231.956 412.141 231.792 412.141 231.628V228.628H413.449V231.442C413.449 231.586 413.449 231.728 413.449 231.868C413.449 232.004 413.449 232.132 413.449 232.252C413.449 232.56 413.489 232.844 413.569 233.104C413.649 233.36 413.789 233.568 413.989 233.728C414.193 233.884 414.477 233.962 414.841 233.962C415.181 233.962 415.477 233.862 415.729 233.662C415.981 233.458 416.177 233.202 416.317 232.894C416.457 232.582 416.527 232.27 416.527 231.958L417.097 232.264C417.097 232.632 417.035 232.986 416.911 233.326C416.791 233.666 416.617 233.972 416.389 234.244C416.161 234.512 415.883 234.724 415.555 234.88C415.231 235.036 414.867 235.114 414.463 235.114ZM416.527 235V228.628H417.829V235H416.527ZM421.985 235.126C421.605 235.126 421.247 235.084 420.911 235C420.575 234.916 420.279 234.794 420.023 234.634C419.771 234.47 419.573 234.268 419.429 234.028C419.289 233.788 419.219 233.51 419.219 233.194C419.219 233.166 419.219 233.138 419.219 233.11C419.219 233.078 419.219 233.052 419.219 233.032H420.515C420.515 233.052 420.515 233.07 420.515 233.086C420.515 233.102 420.515 233.124 420.515 233.152C420.515 233.444 420.649 233.666 420.917 233.818C421.189 233.966 421.557 234.04 422.021 234.04C422.293 234.04 422.541 234.012 422.765 233.956C422.993 233.9 423.173 233.814 423.305 233.698C423.441 233.582 423.509 233.434 423.509 233.254C423.509 232.962 423.365 232.754 423.077 232.63C422.793 232.506 422.361 232.396 421.781 232.3C421.465 232.244 421.159 232.172 420.863 232.084C420.571 231.996 420.307 231.88 420.071 231.736C419.839 231.588 419.653 231.406 419.513 231.19C419.377 230.97 419.309 230.706 419.309 230.398C419.309 229.998 419.429 229.658 419.669 229.378C419.909 229.098 420.233 228.886 420.641 228.742C421.049 228.598 421.499 228.526 421.991 228.526C422.467 228.526 422.907 228.604 423.311 228.76C423.719 228.912 424.047 229.134 424.295 229.426C424.543 229.714 424.667 230.068 424.667 230.488C424.667 230.504 424.667 230.522 424.667 230.542C424.667 230.562 424.667 230.58 424.667 230.596H423.377C423.377 230.58 423.377 230.566 423.377 230.554C423.377 230.542 423.377 230.528 423.377 230.512C423.377 230.304 423.311 230.134 423.179 230.002C423.047 229.87 422.875 229.772 422.663 229.708C422.455 229.64 422.233 229.606 421.997 229.606C421.781 229.606 421.563 229.63 421.343 229.678C421.127 229.722 420.947 229.8 420.803 229.912C420.659 230.02 420.587 230.168 420.587 230.356C420.587 230.548 420.657 230.702 420.797 230.818C420.937 230.93 421.135 231.024 421.391 231.1C421.647 231.172 421.945 231.238 422.285 231.298C422.597 231.354 422.901 231.426 423.197 231.514C423.493 231.598 423.759 231.71 423.995 231.85C424.235 231.99 424.425 232.17 424.565 232.39C424.709 232.61 424.781 232.88 424.781 233.2C424.781 233.532 424.705 233.818 424.553 234.058C424.401 234.298 424.193 234.498 423.929 234.658C423.669 234.814 423.371 234.93 423.035 235.006C422.703 235.086 422.353 235.126 421.985 235.126ZM428.834 235.108C428.622 235.108 428.41 235.086 428.198 235.042C427.99 234.998 427.798 234.918 427.622 234.802C427.45 234.682 427.312 234.512 427.208 234.292C427.104 234.072 427.052 233.784 427.052 233.428C427.052 233.344 427.052 233.256 427.052 233.164C427.052 233.072 427.052 232.978 427.052 232.882V229.708H425.522V228.628H426.326C426.498 228.628 426.632 228.622 426.728 228.61C426.828 228.594 426.9 228.56 426.944 228.508C426.992 228.452 427.022 228.364 427.034 228.244C427.046 228.124 427.052 227.96 427.052 227.752V226.522H428.354V228.628H430.304V229.708H428.354V232.534C428.354 232.614 428.354 232.694 428.354 232.774C428.354 232.854 428.354 232.928 428.354 232.996C428.354 233.316 428.392 233.568 428.468 233.752C428.548 233.936 428.728 234.028 429.008 234.028C429.128 234.028 429.242 234.018 429.35 233.998C429.458 233.978 429.54 233.956 429.596 233.932V234.994C429.524 235.022 429.422 235.048 429.29 235.072C429.158 235.096 429.006 235.108 428.834 235.108ZM434.438 235.12C433.782 235.12 433.202 234.978 432.698 234.694C432.198 234.41 431.806 234.02 431.522 233.524C431.242 233.024 431.102 232.452 431.102 231.808C431.102 231.168 431.242 230.602 431.522 230.11C431.806 229.614 432.198 229.228 432.698 228.952C433.202 228.672 433.782 228.532 434.438 228.532C435.094 228.532 435.672 228.672 436.172 228.952C436.676 229.228 437.068 229.614 437.348 230.11C437.632 230.602 437.774 231.168 437.774 231.808C437.774 232.452 437.632 233.024 437.348 233.524C437.068 234.02 436.676 234.41 436.172 234.694C435.672 234.978 435.094 235.12 434.438 235.12ZM434.438 234.004C434.838 234.004 435.19 233.914 435.494 233.734C435.798 233.554 436.036 233.3 436.208 232.972C436.38 232.64 436.466 232.252 436.466 231.808C436.466 231.368 436.38 230.986 436.208 230.662C436.036 230.338 435.798 230.088 435.494 229.912C435.19 229.736 434.838 229.648 434.438 229.648C434.042 229.648 433.69 229.736 433.382 229.912C433.078 230.088 432.84 230.338 432.668 230.662C432.496 230.986 432.41 231.368 432.41 231.808C432.41 232.252 432.496 232.64 432.668 232.972C432.84 233.3 433.078 233.554 433.382 233.734C433.69 233.914 434.042 234.004 434.438 234.004ZM443.165 235V232.3C443.165 232.056 443.165 231.846 443.165 231.67C443.165 231.49 443.165 231.338 443.165 231.214C443.165 231.058 443.153 230.892 443.129 230.716C443.109 230.54 443.061 230.376 442.985 230.224C442.913 230.068 442.799 229.942 442.643 229.846C442.487 229.75 442.273 229.702 442.001 229.702C441.729 229.702 441.499 229.756 441.311 229.864C441.123 229.972 440.971 230.116 440.855 230.296C440.739 230.472 440.655 230.67 440.603 230.89C440.551 231.106 440.525 231.324 440.525 231.544L439.973 231.244C439.973 230.744 440.071 230.29 440.267 229.882C440.467 229.47 440.747 229.142 441.107 228.898C441.471 228.65 441.899 228.526 442.391 228.526C442.891 228.526 443.291 228.63 443.591 228.838C443.895 229.042 444.115 229.322 444.251 229.678C444.387 230.03 444.455 230.43 444.455 230.878C444.455 231.042 444.455 231.256 444.455 231.52C444.455 231.784 444.455 232.09 444.455 232.438V235H443.165ZM439.223 235V228.628H440.525V235H439.223ZM447.089 235V232.306C447.089 232.042 447.089 231.822 447.089 231.646C447.089 231.466 447.089 231.316 447.089 231.196C447.089 231.032 447.079 230.864 447.059 230.692C447.039 230.516 446.991 230.354 446.915 230.206C446.839 230.058 446.721 229.938 446.561 229.846C446.405 229.75 446.187 229.702 445.907 229.702C445.631 229.702 445.399 229.756 445.211 229.864C445.027 229.968 444.879 230.108 444.767 230.284C444.655 230.456 444.575 230.646 444.527 230.854C444.479 231.062 444.455 231.268 444.455 231.472L443.903 231.184C443.903 230.704 443.999 230.262 444.191 229.858C444.387 229.454 444.663 229.132 445.019 228.892C445.379 228.648 445.805 228.526 446.297 228.526C446.777 228.526 447.171 228.622 447.479 228.814C447.787 229.006 448.015 229.272 448.163 229.612C448.311 229.952 448.385 230.346 448.385 230.794C448.385 230.966 448.385 231.182 448.385 231.442C448.385 231.702 448.385 232.004 448.385 232.348V235H447.089ZM450.502 232.27V231.256H455.194L455.014 231.556C455.014 231.532 455.014 231.508 455.014 231.484C455.014 231.456 455.014 231.432 455.014 231.412C455.014 231.088 454.944 230.79 454.804 230.518C454.664 230.242 454.454 230.022 454.174 229.858C453.898 229.69 453.552 229.606 453.136 229.606C452.72 229.606 452.354 229.696 452.038 229.876C451.726 230.052 451.482 230.304 451.306 230.632C451.134 230.956 451.048 231.346 451.048 231.802C451.048 232.266 451.132 232.666 451.3 233.002C451.468 233.334 451.71 233.59 452.026 233.77C452.342 233.95 452.72 234.04 453.16 234.04C453.468 234.04 453.734 234.01 453.958 233.95C454.186 233.886 454.372 233.802 454.516 233.698C454.664 233.594 454.776 233.482 454.852 233.362C454.928 233.238 454.972 233.116 454.984 232.996H456.28C456.256 233.256 456.17 233.514 456.022 233.77C455.878 234.022 455.672 234.252 455.404 234.46C455.14 234.664 454.816 234.828 454.432 234.952C454.052 235.072 453.614 235.132 453.118 235.132C452.454 235.132 451.872 234.992 451.372 234.712C450.872 234.432 450.482 234.044 450.202 233.548C449.922 233.048 449.782 232.476 449.782 231.832C449.782 231.176 449.924 230.6 450.208 230.104C450.492 229.608 450.886 229.222 451.39 228.946C451.894 228.666 452.472 228.526 453.124 228.526C453.788 228.526 454.362 228.666 454.846 228.946C455.334 229.226 455.71 229.612 455.974 230.104C456.238 230.596 456.37 231.162 456.37 231.802C456.37 231.878 456.368 231.966 456.364 232.066C456.36 232.166 456.354 232.234 456.346 232.27H450.502ZM457.821 235V228.628H459.123V230.662L458.775 230.506C458.803 230.246 458.869 229.998 458.973 229.762C459.077 229.526 459.215 229.316 459.387 229.132C459.563 228.944 459.779 228.796 460.035 228.688C460.291 228.58 460.587 228.526 460.923 228.526C461.179 228.526 461.385 228.546 461.541 228.586C461.701 228.626 461.799 228.658 461.835 228.682L461.559 229.906C461.519 229.878 461.437 229.842 461.313 229.798C461.193 229.754 461.025 229.732 460.809 229.732C460.481 229.732 460.209 229.79 459.993 229.906C459.777 230.022 459.605 230.176 459.477 230.368C459.349 230.56 459.257 230.77 459.201 230.998C459.149 231.222 459.123 231.448 459.123 231.676V235H457.821ZM465.274 235.126C464.894 235.126 464.536 235.084 464.2 235C463.864 234.916 463.568 234.794 463.312 234.634C463.06 234.47 462.862 234.268 462.718 234.028C462.578 233.788 462.508 233.51 462.508 233.194C462.508 233.166 462.508 233.138 462.508 233.11C462.508 233.078 462.508 233.052 462.508 233.032H463.804C463.804 233.052 463.804 233.07 463.804 233.086C463.804 233.102 463.804 233.124 463.804 233.152C463.804 233.444 463.938 233.666 464.206 233.818C464.478 233.966 464.846 234.04 465.31 234.04C465.582 234.04 465.83 234.012 466.054 233.956C466.282 233.9 466.462 233.814 466.594 233.698C466.73 233.582 466.798 233.434 466.798 233.254C466.798 232.962 466.654 232.754 466.366 232.63C466.082 232.506 465.65 232.396 465.07 232.3C464.754 232.244 464.448 232.172 464.152 232.084C463.86 231.996 463.596 231.88 463.36 231.736C463.128 231.588 462.942 231.406 462.802 231.19C462.666 230.97 462.598 230.706 462.598 230.398C462.598 229.998 462.718 229.658 462.958 229.378C463.198 229.098 463.522 228.886 463.93 228.742C464.338 228.598 464.788 228.526 465.28 228.526C465.756 228.526 466.196 228.604 466.6 228.76C467.008 228.912 467.336 229.134 467.584 229.426C467.832 229.714 467.956 230.068 467.956 230.488C467.956 230.504 467.956 230.522 467.956 230.542C467.956 230.562 467.956 230.58 467.956 230.596H466.666C466.666 230.58 466.666 230.566 466.666 230.554C466.666 230.542 466.666 230.528 466.666 230.512C466.666 230.304 466.6 230.134 466.468 230.002C466.336 229.87 466.164 229.772 465.952 229.708C465.744 229.64 465.522 229.606 465.286 229.606C465.07 229.606 464.852 229.63 464.632 229.678C464.416 229.722 464.236 229.8 464.092 229.912C463.948 230.02 463.876 230.168 463.876 230.356C463.876 230.548 463.946 230.702 464.086 230.818C464.226 230.93 464.424 231.024 464.68 231.1C464.936 231.172 465.234 231.238 465.574 231.298C465.886 231.354 466.19 231.426 466.486 231.514C466.782 231.598 467.048 231.71 467.284 231.85C467.524 231.99 467.714 232.17 467.854 232.39C467.998 232.61 468.07 232.88 468.07 233.2C468.07 233.532 467.994 233.818 467.842 234.058C467.69 234.298 467.482 234.498 467.218 234.658C466.958 234.814 466.66 234.93 466.324 235.006C465.992 235.086 465.642 235.126 465.274 235.126Z" fill="#464E5F"/>
</g>
<g clip-path="url(#clip4_8256_16)">
<rect x="217" y="226" width="12" height="12" rx="2" fill="#EF4444"/>
<path d="M235.076 235H233.81V226.15H235.886L239.378 234.382L239.222 234.442V226.15H240.494V235H238.388L234.908 226.78L235.076 226.726V235ZM242.623 232.27V231.256H247.315L247.135 231.556C247.135 231.532 247.135 231.508 247.135 231.484C247.135 231.456 247.135 231.432 247.135 231.412C247.135 231.088 247.065 230.79 246.925 230.518C246.785 230.242 246.575 230.022 246.295 229.858C246.019 229.69 245.673 229.606 245.257 229.606C244.841 229.606 244.475 229.696 244.159 229.876C243.847 230.052 243.603 230.304 243.427 230.632C243.255 230.956 243.169 231.346 243.169 231.802C243.169 232.266 243.253 232.666 243.421 233.002C243.589 233.334 243.831 233.59 244.147 233.77C244.463 233.95 244.841 234.04 245.281 234.04C245.589 234.04 245.855 234.01 246.079 233.95C246.307 233.886 246.493 233.802 246.637 233.698C246.785 233.594 246.897 233.482 246.973 233.362C247.049 233.238 247.093 233.116 247.105 232.996H248.401C248.377 233.256 248.291 233.514 248.143 233.77C247.999 234.022 247.793 234.252 247.525 234.46C247.261 234.664 246.937 234.828 246.553 234.952C246.173 235.072 245.735 235.132 245.239 235.132C244.575 235.132 243.993 234.992 243.493 234.712C242.993 234.432 242.603 234.044 242.323 233.548C242.043 233.048 241.903 232.476 241.903 231.832C241.903 231.176 242.045 230.6 242.329 230.104C242.613 229.608 243.007 229.222 243.511 228.946C244.015 228.666 244.593 228.526 245.245 228.526C245.909 228.526 246.483 228.666 246.967 228.946C247.455 229.226 247.831 229.612 248.095 230.104C248.359 230.596 248.491 231.162 248.491 231.802C248.491 231.878 248.489 231.966 248.485 232.066C248.481 232.166 248.475 232.234 248.467 232.27H242.623ZM254.914 235L253.282 228.628H254.338L255.904 234.526H255.682L256.702 228.628H258.052L256.708 235H254.914ZM250.564 235L249.214 228.628H250.564L251.596 234.526H251.368L252.922 228.628H253.978L252.37 235H250.564ZM268.902 231.868C268.902 232.236 268.834 232.61 268.698 232.99C268.562 233.37 268.356 233.722 268.08 234.046C267.804 234.37 267.456 234.632 267.036 234.832C266.616 235.028 266.122 235.126 265.554 235.126C264.782 235.126 264.124 234.932 263.58 234.544C263.04 234.152 262.628 233.614 262.344 232.93C262.06 232.246 261.918 231.462 261.918 230.578C261.918 229.69 262.06 228.906 262.344 228.226C262.628 227.542 263.04 227.006 263.58 226.618C264.124 226.23 264.782 226.036 265.554 226.036C266.198 226.036 266.746 226.162 267.198 226.414C267.654 226.666 268.016 226.99 268.284 227.386C268.556 227.782 268.736 228.194 268.824 228.622C268.876 228.854 268.902 229.074 268.902 229.282H267.594C267.594 229.17 267.584 229.048 267.564 228.916C267.52 228.596 267.412 228.302 267.24 228.034C267.072 227.766 266.846 227.552 266.562 227.392C266.282 227.232 265.946 227.152 265.554 227.152C265.098 227.152 264.696 227.28 264.348 227.536C264 227.788 263.728 228.168 263.532 228.676C263.34 229.184 263.244 229.818 263.244 230.578C263.244 231.334 263.34 231.968 263.532 232.48C263.728 232.988 264 233.372 264.348 233.632C264.696 233.888 265.098 234.016 265.554 234.016C265.886 234.016 266.178 233.956 266.43 233.836C266.682 233.716 266.894 233.554 267.066 233.35C267.238 233.146 267.368 232.916 267.456 232.66C267.548 232.404 267.594 232.14 267.594 231.868H268.902ZM272.643 235.114C272.191 235.114 271.815 235.038 271.515 234.886C271.215 234.73 270.977 234.528 270.801 234.28C270.625 234.028 270.501 233.754 270.429 233.458C270.357 233.158 270.321 232.866 270.321 232.582C270.321 232.434 270.321 232.28 270.321 232.12C270.321 231.956 270.321 231.792 270.321 231.628V228.628H271.629V231.442C271.629 231.586 271.629 231.728 271.629 231.868C271.629 232.004 271.629 232.132 271.629 232.252C271.629 232.56 271.669 232.844 271.749 233.104C271.829 233.36 271.969 233.568 272.169 233.728C272.373 233.884 272.657 233.962 273.021 233.962C273.361 233.962 273.657 233.862 273.909 233.662C274.161 233.458 274.357 233.202 274.497 232.894C274.637 232.582 274.707 232.27 274.707 231.958L275.277 232.264C275.277 232.632 275.215 232.986 275.091 233.326C274.971 233.666 274.797 233.972 274.569 234.244C274.341 234.512 274.063 234.724 273.735 234.88C273.411 235.036 273.047 235.114 272.643 235.114ZM274.707 235V228.628H276.009V235H274.707ZM280.165 235.126C279.785 235.126 279.427 235.084 279.091 235C278.755 234.916 278.459 234.794 278.203 234.634C277.951 234.47 277.753 234.268 277.609 234.028C277.469 233.788 277.399 233.51 277.399 233.194C277.399 233.166 277.399 233.138 277.399 233.11C277.399 233.078 277.399 233.052 277.399 233.032H278.695C278.695 233.052 278.695 233.07 278.695 233.086C278.695 233.102 278.695 233.124 278.695 233.152C278.695 233.444 278.829 233.666 279.097 233.818C279.369 233.966 279.737 234.04 280.201 234.04C280.473 234.04 280.721 234.012 280.945 233.956C281.173 233.9 281.353 233.814 281.485 233.698C281.621 233.582 281.689 233.434 281.689 233.254C281.689 232.962 281.545 232.754 281.257 232.63C280.973 232.506 280.541 232.396 279.961 232.3C279.645 232.244 279.339 232.172 279.043 232.084C278.751 231.996 278.487 231.88 278.251 231.736C278.019 231.588 277.833 231.406 277.693 231.19C277.557 230.97 277.489 230.706 277.489 230.398C277.489 229.998 277.609 229.658 277.849 229.378C278.089 229.098 278.413 228.886 278.821 228.742C279.229 228.598 279.679 228.526 280.171 228.526C280.647 228.526 281.087 228.604 281.491 228.76C281.899 228.912 282.227 229.134 282.475 229.426C282.723 229.714 282.847 230.068 282.847 230.488C282.847 230.504 282.847 230.522 282.847 230.542C282.847 230.562 282.847 230.58 282.847 230.596H281.557C281.557 230.58 281.557 230.566 281.557 230.554C281.557 230.542 281.557 230.528 281.557 230.512C281.557 230.304 281.491 230.134 281.359 230.002C281.227 229.87 281.055 229.772 280.843 229.708C280.635 229.64 280.413 229.606 280.177 229.606C279.961 229.606 279.743 229.63 279.523 229.678C279.307 229.722 279.127 229.8 278.983 229.912C278.839 230.02 278.767 230.168 278.767 230.356C278.767 230.548 278.837 230.702 278.977 230.818C279.117 230.93 279.315 231.024 279.571 231.1C279.827 231.172 280.125 231.238 280.465 231.298C280.777 231.354 281.081 231.426 281.377 231.514C281.673 231.598 281.939 231.71 282.175 231.85C282.415 231.99 282.605 232.17 282.745 232.39C282.889 232.61 282.961 232.88 282.961 233.2C282.961 233.532 282.885 233.818 282.733 234.058C282.581 234.298 282.373 234.498 282.109 234.658C281.849 234.814 281.551 234.93 281.215 235.006C280.883 235.086 280.533 235.126 280.165 235.126ZM287.014 235.108C286.802 235.108 286.59 235.086 286.378 235.042C286.17 234.998 285.978 234.918 285.802 234.802C285.63 234.682 285.492 234.512 285.388 234.292C285.284 234.072 285.232 233.784 285.232 233.428C285.232 233.344 285.232 233.256 285.232 233.164C285.232 233.072 285.232 232.978 285.232 232.882V229.708H283.702V228.628H284.506C284.678 228.628 284.812 228.622 284.908 228.61C285.008 228.594 285.08 228.56 285.124 228.508C285.172 228.452 285.202 228.364 285.214 228.244C285.226 228.124 285.232 227.96 285.232 227.752V226.522H286.534V228.628H288.484V229.708H286.534V232.534C286.534 232.614 286.534 232.694 286.534 232.774C286.534 232.854 286.534 232.928 286.534 232.996C286.534 233.316 286.572 233.568 286.648 233.752C286.728 233.936 286.908 234.028 287.188 234.028C287.308 234.028 287.422 234.018 287.53 233.998C287.638 233.978 287.72 233.956 287.776 233.932V234.994C287.704 235.022 287.602 235.048 287.47 235.072C287.338 235.096 287.186 235.108 287.014 235.108ZM292.618 235.12C291.962 235.12 291.382 234.978 290.878 234.694C290.378 234.41 289.986 234.02 289.702 233.524C289.422 233.024 289.282 232.452 289.282 231.808C289.282 231.168 289.422 230.602 289.702 230.11C289.986 229.614 290.378 229.228 290.878 228.952C291.382 228.672 291.962 228.532 292.618 228.532C293.274 228.532 293.852 228.672 294.352 228.952C294.856 229.228 295.248 229.614 295.528 230.11C295.812 230.602 295.954 231.168 295.954 231.808C295.954 232.452 295.812 233.024 295.528 233.524C295.248 234.02 294.856 234.41 294.352 234.694C293.852 234.978 293.274 235.12 292.618 235.12ZM292.618 234.004C293.018 234.004 293.37 233.914 293.674 233.734C293.978 233.554 294.216 233.3 294.388 232.972C294.56 232.64 294.646 232.252 294.646 231.808C294.646 231.368 294.56 230.986 294.388 230.662C294.216 230.338 293.978 230.088 293.674 229.912C293.37 229.736 293.018 229.648 292.618 229.648C292.222 229.648 291.87 229.736 291.562 229.912C291.258 230.088 291.02 230.338 290.848 230.662C290.676 230.986 290.59 231.368 290.59 231.808C290.59 232.252 290.676 232.64 290.848 232.972C291.02 233.3 291.258 233.554 291.562 233.734C291.87 233.914 292.222 234.004 292.618 234.004ZM301.345 235V232.3C301.345 232.056 301.345 231.846 301.345 231.67C301.345 231.49 301.345 231.338 301.345 231.214C301.345 231.058 301.333 230.892 301.309 230.716C301.289 230.54 301.241 230.376 301.165 230.224C301.093 230.068 300.979 229.942 300.823 229.846C300.667 229.75 300.453 229.702 300.181 229.702C299.909 229.702 299.679 229.756 299.491 229.864C299.303 229.972 299.151 230.116 299.035 230.296C298.919 230.472 298.835 230.67 298.783 230.89C298.731 231.106 298.705 231.324 298.705 231.544L298.153 231.244C298.153 230.744 298.251 230.29 298.447 229.882C298.647 229.47 298.927 229.142 299.287 228.898C299.651 228.65 300.079 228.526 300.571 228.526C301.071 228.526 301.471 228.63 301.771 228.838C302.075 229.042 302.295 229.322 302.431 229.678C302.567 230.03 302.635 230.43 302.635 230.878C302.635 231.042 302.635 231.256 302.635 231.52C302.635 231.784 302.635 232.09 302.635 232.438V235H301.345ZM297.403 235V228.628H298.705V235H297.403ZM305.269 235V232.306C305.269 232.042 305.269 231.822 305.269 231.646C305.269 231.466 305.269 231.316 305.269 231.196C305.269 231.032 305.259 230.864 305.239 230.692C305.219 230.516 305.171 230.354 305.095 230.206C305.019 230.058 304.901 229.938 304.741 229.846C304.585 229.75 304.367 229.702 304.087 229.702C303.811 229.702 303.579 229.756 303.391 229.864C303.207 229.968 303.059 230.108 302.947 230.284C302.835 230.456 302.755 230.646 302.707 230.854C302.659 231.062 302.635 231.268 302.635 231.472L302.083 231.184C302.083 230.704 302.179 230.262 302.371 229.858C302.567 229.454 302.843 229.132 303.199 228.892C303.559 228.648 303.985 228.526 304.477 228.526C304.957 228.526 305.351 228.622 305.659 228.814C305.967 229.006 306.195 229.272 306.343 229.612C306.491 229.952 306.565 230.346 306.565 230.794C306.565 230.966 306.565 231.182 306.565 231.442C306.565 231.702 306.565 232.004 306.565 232.348V235H305.269ZM308.681 232.27V231.256H313.373L313.193 231.556C313.193 231.532 313.193 231.508 313.193 231.484C313.193 231.456 313.193 231.432 313.193 231.412C313.193 231.088 313.123 230.79 312.983 230.518C312.843 230.242 312.633 230.022 312.353 229.858C312.077 229.69 311.731 229.606 311.315 229.606C310.899 229.606 310.533 229.696 310.217 229.876C309.905 230.052 309.661 230.304 309.485 230.632C309.313 230.956 309.227 231.346 309.227 231.802C309.227 232.266 309.311 232.666 309.479 233.002C309.647 233.334 309.889 233.59 310.205 233.77C310.521 233.95 310.899 234.04 311.339 234.04C311.647 234.04 311.913 234.01 312.137 233.95C312.365 233.886 312.551 233.802 312.695 233.698C312.843 233.594 312.955 233.482 313.031 233.362C313.107 233.238 313.151 233.116 313.163 232.996H314.459C314.435 233.256 314.349 233.514 314.201 233.77C314.057 234.022 313.851 234.252 313.583 234.46C313.319 234.664 312.995 234.828 312.611 234.952C312.231 235.072 311.793 235.132 311.297 235.132C310.633 235.132 310.051 234.992 309.551 234.712C309.051 234.432 308.661 234.044 308.381 233.548C308.101 233.048 307.961 232.476 307.961 231.832C307.961 231.176 308.103 230.6 308.387 230.104C308.671 229.608 309.065 229.222 309.569 228.946C310.073 228.666 310.651 228.526 311.303 228.526C311.967 228.526 312.541 228.666 313.025 228.946C313.513 229.226 313.889 229.612 314.153 230.104C314.417 230.596 314.549 231.162 314.549 231.802C314.549 231.878 314.547 231.966 314.543 232.066C314.539 232.166 314.533 232.234 314.525 232.27H308.681ZM316.001 235V228.628H317.303V230.662L316.955 230.506C316.983 230.246 317.049 229.998 317.153 229.762C317.257 229.526 317.395 229.316 317.567 229.132C317.743 228.944 317.959 228.796 318.215 228.688C318.471 228.58 318.767 228.526 319.103 228.526C319.359 228.526 319.565 228.546 319.721 228.586C319.881 228.626 319.979 228.658 320.015 228.682L319.739 229.906C319.699 229.878 319.617 229.842 319.493 229.798C319.373 229.754 319.205 229.732 318.989 229.732C318.661 229.732 318.389 229.79 318.173 229.906C317.957 230.022 317.785 230.176 317.657 230.368C317.529 230.56 317.437 230.77 317.381 230.998C317.329 231.222 317.303 231.448 317.303 231.676V235H316.001ZM323.454 235.126C323.074 235.126 322.716 235.084 322.38 235C322.044 234.916 321.748 234.794 321.492 234.634C321.24 234.47 321.042 234.268 320.898 234.028C320.758 233.788 320.688 233.51 320.688 233.194C320.688 233.166 320.688 233.138 320.688 233.11C320.688 233.078 320.688 233.052 320.688 233.032H321.984C321.984 233.052 321.984 233.07 321.984 233.086C321.984 233.102 321.984 233.124 321.984 233.152C321.984 233.444 322.118 233.666 322.386 233.818C322.658 233.966 323.026 234.04 323.49 234.04C323.762 234.04 324.01 234.012 324.234 233.956C324.462 233.9 324.642 233.814 324.774 233.698C324.91 233.582 324.978 233.434 324.978 233.254C324.978 232.962 324.834 232.754 324.546 232.63C324.262 232.506 323.83 232.396 323.25 232.3C322.934 232.244 322.628 232.172 322.332 232.084C322.04 231.996 321.776 231.88 321.54 231.736C321.308 231.588 321.122 231.406 320.982 231.19C320.846 230.97 320.778 230.706 320.778 230.398C320.778 229.998 320.898 229.658 321.138 229.378C321.378 229.098 321.702 228.886 322.11 228.742C322.518 228.598 322.968 228.526 323.46 228.526C323.936 228.526 324.376 228.604 324.78 228.76C325.188 228.912 325.516 229.134 325.764 229.426C326.012 229.714 326.136 230.068 326.136 230.488C326.136 230.504 326.136 230.522 326.136 230.542C326.136 230.562 326.136 230.58 326.136 230.596H324.846C324.846 230.58 324.846 230.566 324.846 230.554C324.846 230.542 324.846 230.528 324.846 230.512C324.846 230.304 324.78 230.134 324.648 230.002C324.516 229.87 324.344 229.772 324.132 229.708C323.924 229.64 323.702 229.606 323.466 229.606C323.25 229.606 323.032 229.63 322.812 229.678C322.596 229.722 322.416 229.8 322.272 229.912C322.128 230.02 322.056 230.168 322.056 230.356C322.056 230.548 322.126 230.702 322.266 230.818C322.406 230.93 322.604 231.024 322.86 231.1C323.116 231.172 323.414 231.238 323.754 231.298C324.066 231.354 324.37 231.426 324.666 231.514C324.962 231.598 325.228 231.71 325.464 231.85C325.704 231.99 325.894 232.17 326.034 232.39C326.178 232.61 326.25 232.88 326.25 233.2C326.25 233.532 326.174 233.818 326.022 234.058C325.87 234.298 325.662 234.498 325.398 234.658C325.138 234.814 324.84 234.93 324.504 235.006C324.172 235.086 323.822 235.126 323.454 235.126Z" fill="#464E5F"/>
</g>
<g clip-path="url(#clip5_8256_16)">
<rect x="86.0001" y="226" width="12" height="12" rx="2" fill="#A700FF"/>
<path d="M102.81 235V226.15H104.112V234.604L103.524 233.896H107.538V235H102.81ZM111.965 235.12C111.309 235.12 110.729 234.978 110.225 234.694C109.725 234.41 109.333 234.02 109.049 233.524C108.769 233.024 108.629 232.452 108.629 231.808C108.629 231.168 108.769 230.602 109.049 230.11C109.333 229.614 109.725 229.228 110.225 228.952C110.729 228.672 111.309 228.532 111.965 228.532C112.621 228.532 113.199 228.672 113.699 228.952C114.203 229.228 114.595 229.614 114.875 230.11C115.159 230.602 115.301 231.168 115.301 231.808C115.301 232.452 115.159 233.024 114.875 233.524C114.595 234.02 114.203 234.41 113.699 234.694C113.199 234.978 112.621 235.12 111.965 235.12ZM111.965 234.004C112.365 234.004 112.717 233.914 113.021 233.734C113.325 233.554 113.563 233.3 113.735 232.972C113.907 232.64 113.993 232.252 113.993 231.808C113.993 231.368 113.907 230.986 113.735 230.662C113.563 230.338 113.325 230.088 113.021 229.912C112.717 229.736 112.365 229.648 111.965 229.648C111.569 229.648 111.217 229.736 110.909 229.912C110.605 230.088 110.367 230.338 110.195 230.662C110.023 230.986 109.937 231.368 109.937 231.808C109.937 232.252 110.023 232.64 110.195 232.972C110.367 233.3 110.605 233.554 110.909 233.734C111.217 233.914 111.569 234.004 111.965 234.004ZM116.693 237.712C116.521 237.712 116.363 237.702 116.219 237.682C116.079 237.666 115.993 237.65 115.961 237.634V236.572C116.013 236.596 116.099 236.616 116.219 236.632C116.343 236.648 116.471 236.656 116.603 236.656C116.839 236.656 117.041 236.608 117.209 236.512C117.381 236.416 117.525 236.282 117.641 236.11C117.761 235.942 117.857 235.75 117.929 235.534L118.091 235.054L115.895 228.628H117.251L118.889 234.028H118.721L120.317 228.628H121.655L119.369 235.468C119.229 235.896 119.057 236.278 118.853 236.614C118.649 236.954 118.377 237.222 118.037 237.418C117.697 237.614 117.249 237.712 116.693 237.712ZM124.677 235.126C124.197 235.126 123.775 235.05 123.411 234.898C123.051 234.746 122.771 234.528 122.571 234.244C122.371 233.96 122.271 233.618 122.271 233.218C122.271 232.79 122.383 232.436 122.607 232.156C122.835 231.876 123.147 231.66 123.543 231.508C123.943 231.352 124.397 231.25 124.905 231.202C125.661 231.126 126.193 231.052 126.501 230.98C126.813 230.908 126.969 230.79 126.969 230.626C126.969 230.622 126.969 230.618 126.969 230.614C126.969 230.29 126.831 230.044 126.555 229.876C126.279 229.708 125.885 229.624 125.373 229.624C124.833 229.624 124.415 229.72 124.119 229.912C123.827 230.1 123.681 230.4 123.681 230.812H122.403C122.403 230.324 122.529 229.91 122.781 229.57C123.037 229.23 123.389 228.972 123.837 228.796C124.285 228.616 124.799 228.526 125.379 228.526C125.911 228.526 126.395 228.608 126.831 228.772C127.271 228.932 127.621 229.172 127.881 229.492C128.141 229.812 128.271 230.21 128.271 230.686C128.271 230.77 128.271 230.854 128.271 230.938C128.271 231.018 128.271 231.1 128.271 231.184V233.728C128.271 233.876 128.277 234.02 128.289 234.16C128.301 234.296 128.323 234.418 128.355 234.526C128.391 234.65 128.433 234.752 128.481 234.832C128.533 234.912 128.575 234.968 128.607 235H127.311C127.287 234.976 127.251 234.926 127.203 234.85C127.159 234.77 127.119 234.678 127.083 234.574C127.047 234.474 127.019 234.36 126.999 234.232C126.983 234.1 126.975 233.958 126.975 233.806L127.215 233.974C127.095 234.206 126.913 234.408 126.669 234.58C126.429 234.752 126.139 234.886 125.799 234.982C125.463 235.078 125.089 235.126 124.677 235.126ZM124.947 234.046C125.319 234.046 125.657 233.988 125.961 233.872C126.269 233.752 126.515 233.572 126.699 233.332C126.883 233.088 126.975 232.782 126.975 232.414V231.358L127.281 231.76C127.025 231.86 126.711 231.942 126.339 232.006C125.971 232.066 125.591 232.116 125.199 232.156C124.659 232.204 124.253 232.298 123.981 232.438C123.709 232.574 123.573 232.802 123.573 233.122C123.573 233.43 123.685 233.662 123.909 233.818C124.137 233.97 124.483 234.046 124.947 234.046ZM131.226 225.622V235H129.942V225.622H131.226ZM142.671 231.868C142.671 232.236 142.603 232.61 142.467 232.99C142.331 233.37 142.125 233.722 141.849 234.046C141.573 234.37 141.225 234.632 140.805 234.832C140.385 235.028 139.891 235.126 139.323 235.126C138.551 235.126 137.893 234.932 137.349 234.544C136.809 234.152 136.397 233.614 136.113 232.93C135.829 232.246 135.687 231.462 135.687 230.578C135.687 229.69 135.829 228.906 136.113 228.226C136.397 227.542 136.809 227.006 137.349 226.618C137.893 226.23 138.551 226.036 139.323 226.036C139.967 226.036 140.515 226.162 140.967 226.414C141.423 226.666 141.785 226.99 142.053 227.386C142.325 227.782 142.505 228.194 142.593 228.622C142.645 228.854 142.671 229.074 142.671 229.282H141.363C141.363 229.17 141.353 229.048 141.333 228.916C141.289 228.596 141.181 228.302 141.009 228.034C140.841 227.766 140.615 227.552 140.331 227.392C140.051 227.232 139.715 227.152 139.323 227.152C138.867 227.152 138.465 227.28 138.117 227.536C137.769 227.788 137.497 228.168 137.301 228.676C137.109 229.184 137.013 229.818 137.013 230.578C137.013 231.334 137.109 231.968 137.301 232.48C137.497 232.988 137.769 233.372 138.117 233.632C138.465 233.888 138.867 234.016 139.323 234.016C139.655 234.016 139.947 233.956 140.199 233.836C140.451 233.716 140.663 233.554 140.835 233.35C141.007 233.146 141.137 232.916 141.225 232.66C141.317 232.404 141.363 232.14 141.363 231.868H142.671ZM146.412 235.114C145.96 235.114 145.584 235.038 145.284 234.886C144.984 234.73 144.746 234.528 144.57 234.28C144.394 234.028 144.27 233.754 144.198 233.458C144.126 233.158 144.09 232.866 144.09 232.582C144.09 232.434 144.09 232.28 144.09 232.12C144.09 231.956 144.09 231.792 144.09 231.628V228.628H145.398V231.442C145.398 231.586 145.398 231.728 145.398 231.868C145.398 232.004 145.398 232.132 145.398 232.252C145.398 232.56 145.438 232.844 145.518 233.104C145.598 233.36 145.738 233.568 145.938 233.728C146.142 233.884 146.426 233.962 146.79 233.962C147.13 233.962 147.426 233.862 147.678 233.662C147.93 233.458 148.126 233.202 148.266 232.894C148.406 232.582 148.476 232.27 148.476 231.958L149.046 232.264C149.046 232.632 148.984 232.986 148.86 233.326C148.74 233.666 148.566 233.972 148.338 234.244C148.11 234.512 147.832 234.724 147.504 234.88C147.18 235.036 146.816 235.114 146.412 235.114ZM148.476 235V228.628H149.778V235H148.476ZM153.934 235.126C153.554 235.126 153.196 235.084 152.86 235C152.524 234.916 152.228 234.794 151.972 234.634C151.72 234.47 151.522 234.268 151.378 234.028C151.238 233.788 151.168 233.51 151.168 233.194C151.168 233.166 151.168 233.138 151.168 233.11C151.168 233.078 151.168 233.052 151.168 233.032H152.464C152.464 233.052 152.464 233.07 152.464 233.086C152.464 233.102 152.464 233.124 152.464 233.152C152.464 233.444 152.598 233.666 152.866 233.818C153.138 233.966 153.506 234.04 153.97 234.04C154.242 234.04 154.49 234.012 154.714 233.956C154.942 233.9 155.122 233.814 155.254 233.698C155.39 233.582 155.458 233.434 155.458 233.254C155.458 232.962 155.314 232.754 155.026 232.63C154.742 232.506 154.31 232.396 153.73 232.3C153.414 232.244 153.108 232.172 152.812 232.084C152.52 231.996 152.256 231.88 152.02 231.736C151.788 231.588 151.602 231.406 151.462 231.19C151.326 230.97 151.258 230.706 151.258 230.398C151.258 229.998 151.378 229.658 151.618 229.378C151.858 229.098 152.182 228.886 152.59 228.742C152.998 228.598 153.448 228.526 153.94 228.526C154.416 228.526 154.856 228.604 155.26 228.76C155.668 228.912 155.996 229.134 156.244 229.426C156.492 229.714 156.616 230.068 156.616 230.488C156.616 230.504 156.616 230.522 156.616 230.542C156.616 230.562 156.616 230.58 156.616 230.596H155.326C155.326 230.58 155.326 230.566 155.326 230.554C155.326 230.542 155.326 230.528 155.326 230.512C155.326 230.304 155.26 230.134 155.128 230.002C154.996 229.87 154.824 229.772 154.612 229.708C154.404 229.64 154.182 229.606 153.946 229.606C153.73 229.606 153.512 229.63 153.292 229.678C153.076 229.722 152.896 229.8 152.752 229.912C152.608 230.02 152.536 230.168 152.536 230.356C152.536 230.548 152.606 230.702 152.746 230.818C152.886 230.93 153.084 231.024 153.34 231.1C153.596 231.172 153.894 231.238 154.234 231.298C154.546 231.354 154.85 231.426 155.146 231.514C155.442 231.598 155.708 231.71 155.944 231.85C156.184 231.99 156.374 232.17 156.514 232.39C156.658 232.61 156.73 232.88 156.73 233.2C156.73 233.532 156.654 233.818 156.502 234.058C156.35 234.298 156.142 234.498 155.878 234.658C155.618 234.814 155.32 234.93 154.984 235.006C154.652 235.086 154.302 235.126 153.934 235.126ZM160.783 235.108C160.571 235.108 160.359 235.086 160.147 235.042C159.939 234.998 159.747 234.918 159.571 234.802C159.399 234.682 159.261 234.512 159.157 234.292C159.053 234.072 159.001 233.784 159.001 233.428C159.001 233.344 159.001 233.256 159.001 233.164C159.001 233.072 159.001 232.978 159.001 232.882V229.708H157.471V228.628H158.275C158.447 228.628 158.581 228.622 158.677 228.61C158.777 228.594 158.849 228.56 158.893 228.508C158.941 228.452 158.971 228.364 158.983 228.244C158.995 228.124 159.001 227.96 159.001 227.752V226.522H160.303V228.628H162.253V229.708H160.303V232.534C160.303 232.614 160.303 232.694 160.303 232.774C160.303 232.854 160.303 232.928 160.303 232.996C160.303 233.316 160.341 233.568 160.417 233.752C160.497 233.936 160.677 234.028 160.957 234.028C161.077 234.028 161.191 234.018 161.299 233.998C161.407 233.978 161.489 233.956 161.545 233.932V234.994C161.473 235.022 161.371 235.048 161.239 235.072C161.107 235.096 160.955 235.108 160.783 235.108ZM166.387 235.12C165.731 235.12 165.151 234.978 164.647 234.694C164.147 234.41 163.755 234.02 163.471 233.524C163.191 233.024 163.051 232.452 163.051 231.808C163.051 231.168 163.191 230.602 163.471 230.11C163.755 229.614 164.147 229.228 164.647 228.952C165.151 228.672 165.731 228.532 166.387 228.532C167.043 228.532 167.621 228.672 168.121 228.952C168.625 229.228 169.017 229.614 169.297 230.11C169.581 230.602 169.723 231.168 169.723 231.808C169.723 232.452 169.581 233.024 169.297 233.524C169.017 234.02 168.625 234.41 168.121 234.694C167.621 234.978 167.043 235.12 166.387 235.12ZM166.387 234.004C166.787 234.004 167.139 233.914 167.443 233.734C167.747 233.554 167.985 233.3 168.157 232.972C168.329 232.64 168.415 232.252 168.415 231.808C168.415 231.368 168.329 230.986 168.157 230.662C167.985 230.338 167.747 230.088 167.443 229.912C167.139 229.736 166.787 229.648 166.387 229.648C165.991 229.648 165.639 229.736 165.331 229.912C165.027 230.088 164.789 230.338 164.617 230.662C164.445 230.986 164.359 231.368 164.359 231.808C164.359 232.252 164.445 232.64 164.617 232.972C164.789 233.3 165.027 233.554 165.331 233.734C165.639 233.914 165.991 234.004 166.387 234.004ZM175.114 235V232.3C175.114 232.056 175.114 231.846 175.114 231.67C175.114 231.49 175.114 231.338 175.114 231.214C175.114 231.058 175.102 230.892 175.078 230.716C175.058 230.54 175.01 230.376 174.934 230.224C174.862 230.068 174.748 229.942 174.592 229.846C174.436 229.75 174.222 229.702 173.95 229.702C173.678 229.702 173.448 229.756 173.26 229.864C173.072 229.972 172.92 230.116 172.804 230.296C172.688 230.472 172.604 230.67 172.552 230.89C172.5 231.106 172.474 231.324 172.474 231.544L171.922 231.244C171.922 230.744 172.02 230.29 172.216 229.882C172.416 229.47 172.696 229.142 173.056 228.898C173.42 228.65 173.848 228.526 174.34 228.526C174.84 228.526 175.24 228.63 175.54 228.838C175.844 229.042 176.064 229.322 176.2 229.678C176.336 230.03 176.404 230.43 176.404 230.878C176.404 231.042 176.404 231.256 176.404 231.52C176.404 231.784 176.404 232.09 176.404 232.438V235H175.114ZM171.172 235V228.628H172.474V235H171.172ZM179.038 235V232.306C179.038 232.042 179.038 231.822 179.038 231.646C179.038 231.466 179.038 231.316 179.038 231.196C179.038 231.032 179.028 230.864 179.008 230.692C178.988 230.516 178.94 230.354 178.864 230.206C178.788 230.058 178.67 229.938 178.51 229.846C178.354 229.75 178.136 229.702 177.856 229.702C177.58 229.702 177.348 229.756 177.16 229.864C176.976 229.968 176.828 230.108 176.716 230.284C176.604 230.456 176.524 230.646 176.476 230.854C176.428 231.062 176.404 231.268 176.404 231.472L175.852 231.184C175.852 230.704 175.948 230.262 176.14 229.858C176.336 229.454 176.612 229.132 176.968 228.892C177.328 228.648 177.754 228.526 178.246 228.526C178.726 228.526 179.12 228.622 179.428 228.814C179.736 229.006 179.964 229.272 180.112 229.612C180.26 229.952 180.334 230.346 180.334 230.794C180.334 230.966 180.334 231.182 180.334 231.442C180.334 231.702 180.334 232.004 180.334 232.348V235H179.038ZM182.451 232.27V231.256H187.143L186.963 231.556C186.963 231.532 186.963 231.508 186.963 231.484C186.963 231.456 186.963 231.432 186.963 231.412C186.963 231.088 186.893 230.79 186.753 230.518C186.613 230.242 186.403 230.022 186.123 229.858C185.847 229.69 185.501 229.606 185.085 229.606C184.669 229.606 184.303 229.696 183.987 229.876C183.675 230.052 183.431 230.304 183.255 230.632C183.083 230.956 182.997 231.346 182.997 231.802C182.997 232.266 183.081 232.666 183.249 233.002C183.417 233.334 183.659 233.59 183.975 233.77C184.291 233.95 184.669 234.04 185.109 234.04C185.417 234.04 185.683 234.01 185.907 233.95C186.135 233.886 186.321 233.802 186.465 233.698C186.613 233.594 186.725 233.482 186.801 233.362C186.877 233.238 186.921 233.116 186.933 232.996H188.229C188.205 233.256 188.119 233.514 187.971 233.77C187.827 234.022 187.621 234.252 187.353 234.46C187.089 234.664 186.765 234.828 186.381 234.952C186.001 235.072 185.563 235.132 185.067 235.132C184.403 235.132 183.821 234.992 183.321 234.712C182.821 234.432 182.431 234.044 182.151 233.548C181.871 233.048 181.731 232.476 181.731 231.832C181.731 231.176 181.873 230.6 182.157 230.104C182.441 229.608 182.835 229.222 183.339 228.946C183.843 228.666 184.421 228.526 185.073 228.526C185.737 228.526 186.311 228.666 186.795 228.946C187.283 229.226 187.659 229.612 187.923 230.104C188.187 230.596 188.319 231.162 188.319 231.802C188.319 231.878 188.317 231.966 188.313 232.066C188.309 232.166 188.303 232.234 188.295 232.27H182.451ZM189.77 235V228.628H191.072V230.662L190.724 230.506C190.752 230.246 190.818 229.998 190.922 229.762C191.026 229.526 191.164 229.316 191.336 229.132C191.512 228.944 191.728 228.796 191.984 228.688C192.24 228.58 192.536 228.526 192.872 228.526C193.128 228.526 193.334 228.546 193.49 228.586C193.65 228.626 193.748 228.658 193.784 228.682L193.508 229.906C193.468 229.878 193.386 229.842 193.262 229.798C193.142 229.754 192.974 229.732 192.758 229.732C192.43 229.732 192.158 229.79 191.942 229.906C191.726 230.022 191.554 230.176 191.426 230.368C191.298 230.56 191.206 230.77 191.15 230.998C191.098 231.222 191.072 231.448 191.072 231.676V235H189.77ZM197.223 235.126C196.843 235.126 196.485 235.084 196.149 235C195.813 234.916 195.517 234.794 195.261 234.634C195.009 234.47 194.811 234.268 194.667 234.028C194.527 233.788 194.457 233.51 194.457 233.194C194.457 233.166 194.457 233.138 194.457 233.11C194.457 233.078 194.457 233.052 194.457 233.032H195.753C195.753 233.052 195.753 233.07 195.753 233.086C195.753 233.102 195.753 233.124 195.753 233.152C195.753 233.444 195.887 233.666 196.155 233.818C196.427 233.966 196.795 234.04 197.259 234.04C197.531 234.04 197.779 234.012 198.003 233.956C198.231 233.9 198.411 233.814 198.543 233.698C198.679 233.582 198.747 233.434 198.747 233.254C198.747 232.962 198.603 232.754 198.315 232.63C198.031 232.506 197.599 232.396 197.019 232.3C196.703 232.244 196.397 232.172 196.101 232.084C195.809 231.996 195.545 231.88 195.309 231.736C195.077 231.588 194.891 231.406 194.751 231.19C194.615 230.97 194.547 230.706 194.547 230.398C194.547 229.998 194.667 229.658 194.907 229.378C195.147 229.098 195.471 228.886 195.879 228.742C196.287 228.598 196.737 228.526 197.229 228.526C197.705 228.526 198.145 228.604 198.549 228.76C198.957 228.912 199.285 229.134 199.533 229.426C199.781 229.714 199.905 230.068 199.905 230.488C199.905 230.504 199.905 230.522 199.905 230.542C199.905 230.562 199.905 230.58 199.905 230.596H198.615C198.615 230.58 198.615 230.566 198.615 230.554C198.615 230.542 198.615 230.528 198.615 230.512C198.615 230.304 198.549 230.134 198.417 230.002C198.285 229.87 198.113 229.772 197.901 229.708C197.693 229.64 197.471 229.606 197.235 229.606C197.019 229.606 196.801 229.63 196.581 229.678C196.365 229.722 196.185 229.8 196.041 229.912C195.897 230.02 195.825 230.168 195.825 230.356C195.825 230.548 195.895 230.702 196.035 230.818C196.175 230.93 196.373 231.024 196.629 231.1C196.885 231.172 197.183 231.238 197.523 231.298C197.835 231.354 198.139 231.426 198.435 231.514C198.731 231.598 198.997 231.71 199.233 231.85C199.473 231.99 199.663 232.17 199.803 232.39C199.947 232.61 200.019 232.88 200.019 233.2C200.019 233.532 199.943 233.818 199.791 234.058C199.639 234.298 199.431 234.498 199.167 234.658C198.907 234.814 198.609 234.93 198.273 235.006C197.941 235.086 197.591 235.126 197.223 235.126Z" fill="#464E5F"/>
</g>
</g>
<defs>
<clipPath id="clip0_8256_16">
<rect width="516" height="165" fill="white" transform="translate(30 7)"/>
</clipPath>
<clipPath id="clip1_8256_16">
<rect width="484" height="163" fill="white" transform="translate(46 8)"/>
</clipPath>
<clipPath id="clip2_8256_16">
<rect width="386.268" height="12" fill="white" transform="translate(81.8702 226)"/>
</clipPath>
<clipPath id="clip3_8256_16">
<rect width="126" height="12" fill="white" transform="translate(343 226)"/>
</clipPath>
<clipPath id="clip4_8256_16">
<rect width="110" height="12" fill="white" transform="translate(217 226)"/>
</clipPath>
<clipPath id="clip5_8256_16">
<rect width="115" height="12" fill="white" transform="translate(86.0001 226)"/>
</clipPath>
</defs>
</svg>
